<mxfile host="Electron" agent="Mozilla/5.0 (Macintosh; Intel Mac OS X 10_15_7) AppleWebKit/537.36 (KHTML, like Gecko) draw.io/26.0.9 Chrome/128.0.6613.186 Electron/32.2.5 Safari/537.36" version="26.0.9" pages="2">
  <diagram name="Page-1" id="heYHD58OQ_SiuL--3fKP">
    <mxGraphModel dx="2195" dy="2160" grid="1" gridSize="10" guides="1" tooltips="1" connect="1" arrows="1" fold="1" page="1" pageScale="1" pageWidth="827" pageHeight="1169" math="0" shadow="0">
      <root>
        <mxCell id="0" />
        <mxCell id="1" parent="0" />
        <mxCell id="9fqdMQlMmsC5MotKpiYv-28" value="" style="rounded=1;whiteSpace=wrap;html=1;strokeColor=#0070F2;fillColor=#EBF8FF;arcSize=24;absoluteArcSize=1;imageWidth=64;imageHeight=64;strokeWidth=1.5;" vertex="1" parent="1">
          <mxGeometry x="-35" y="190" width="670" height="330" as="geometry" />
        </mxCell>
        <mxCell id="zkFD7HPNTwiKwkIUsyC6-8" style="edgeStyle=orthogonalEdgeStyle;rounded=0;orthogonalLoop=1;jettySize=auto;html=1;entryX=0.5;entryY=1;entryDx=0;entryDy=0;exitX=0.476;exitY=0.07;exitDx=0;exitDy=0;exitPerimeter=0;" edge="1" parent="1" source="zkFD7HPNTwiKwkIUsyC6-4" target="zkFD7HPNTwiKwkIUsyC6-5">
          <mxGeometry relative="1" as="geometry" />
        </mxCell>
        <mxCell id="zkFD7HPNTwiKwkIUsyC6-2" value="" style="rounded=1;whiteSpace=wrap;html=1;strokeColor=#475E75;fillColor=#ffffff;arcSize=24;absoluteArcSize=1;imageWidth=64;imageHeight=64;strokeWidth=1.5;" vertex="1" parent="1">
          <mxGeometry x="-120" y="560" width="820" height="180" as="geometry" />
        </mxCell>
        <mxCell id="zkFD7HPNTwiKwkIUsyC6-3" value="&lt;font face=&quot;arial&quot; style=&quot;font-size: 16px;&quot;&gt;&lt;b style=&quot;font-size: 16px;&quot;&gt;SAP Source Systems&lt;/b&gt;&lt;/font&gt;" style="text;html=1;align=left;verticalAlign=middle;resizable=0;points=[];autosize=1;strokeColor=none;fillColor=none;fontSize=12;fontColor=#1d2d3e;fontFamily=Helvetica;" vertex="1" parent="1">
          <mxGeometry x="-110" y="569" width="190" height="30" as="geometry" />
        </mxCell>
        <mxCell id="zkFD7HPNTwiKwkIUsyC6-4" value="&lt;b&gt;&lt;font style=&quot;font-size: 16px;&quot;&gt;SAP S/4HANA PCE&lt;/font&gt;&lt;/b&gt;" style="rounded=1;whiteSpace=wrap;html=1;strokeColor=#0070F2;fillColor=#EBF8FF;arcSize=24;absoluteArcSize=1;imageWidth=64;imageHeight=64;strokeWidth=1.5;" vertex="1" parent="1">
          <mxGeometry x="120" y="673" width="340" height="50" as="geometry" />
        </mxCell>
        <mxCell id="zkFD7HPNTwiKwkIUsyC6-5" value="Finance&amp;nbsp;" style="rounded=1;whiteSpace=wrap;html=1;strokeColor=#0070F2;fillColor=#EBF8FF;arcSize=24;absoluteArcSize=1;imageWidth=64;imageHeight=64;strokeWidth=1.5;" vertex="1" parent="1">
          <mxGeometry x="120" y="605" width="100" height="40" as="geometry" />
        </mxCell>
        <mxCell id="zkFD7HPNTwiKwkIUsyC6-6" value="Others" style="rounded=1;whiteSpace=wrap;html=1;strokeColor=#0070F2;fillColor=#EBF8FF;arcSize=24;absoluteArcSize=1;imageWidth=64;imageHeight=64;strokeWidth=1.5;" vertex="1" parent="1">
          <mxGeometry x="233" y="605" width="100" height="40" as="geometry" />
        </mxCell>
        <mxCell id="zkFD7HPNTwiKwkIUsyC6-7" value="HCM" style="rounded=1;whiteSpace=wrap;html=1;strokeColor=#0070F2;fillColor=#EBF8FF;arcSize=24;absoluteArcSize=1;imageWidth=64;imageHeight=64;strokeWidth=1.5;" vertex="1" parent="1">
          <mxGeometry x="350" y="605" width="100" height="40" as="geometry" />
        </mxCell>
        <mxCell id="zkFD7HPNTwiKwkIUsyC6-9" style="edgeStyle=orthogonalEdgeStyle;rounded=0;orthogonalLoop=1;jettySize=auto;html=1;entryX=0.589;entryY=0.989;entryDx=0;entryDy=0;entryPerimeter=0;dashed=1;" edge="1" parent="1" source="zkFD7HPNTwiKwkIUsyC6-4" target="zkFD7HPNTwiKwkIUsyC6-5">
          <mxGeometry relative="1" as="geometry">
            <Array as="points">
              <mxPoint x="290" y="660" />
              <mxPoint x="179" y="660" />
            </Array>
          </mxGeometry>
        </mxCell>
        <mxCell id="zkFD7HPNTwiKwkIUsyC6-10" style="edgeStyle=orthogonalEdgeStyle;rounded=0;orthogonalLoop=1;jettySize=auto;html=1;entryX=0.546;entryY=0.954;entryDx=0;entryDy=0;entryPerimeter=0;dashed=1;" edge="1" parent="1" source="zkFD7HPNTwiKwkIUsyC6-4" target="zkFD7HPNTwiKwkIUsyC6-7">
          <mxGeometry relative="1" as="geometry">
            <Array as="points">
              <mxPoint x="290" y="660" />
              <mxPoint x="405" y="660" />
            </Array>
          </mxGeometry>
        </mxCell>
        <mxCell id="zkFD7HPNTwiKwkIUsyC6-11" style="edgeStyle=orthogonalEdgeStyle;rounded=0;orthogonalLoop=1;jettySize=auto;html=1;entryX=0.568;entryY=0.965;entryDx=0;entryDy=0;entryPerimeter=0;dashed=1;" edge="1" parent="1" source="zkFD7HPNTwiKwkIUsyC6-4" target="zkFD7HPNTwiKwkIUsyC6-6">
          <mxGeometry relative="1" as="geometry" />
        </mxCell>
        <mxCell id="zkFD7HPNTwiKwkIUsyC6-12" value="" style="rounded=1;whiteSpace=wrap;html=1;strokeColor=light-dark(#0c7ded, #8ea2b5);fillColor=#ffffff;arcSize=24;absoluteArcSize=1;imageWidth=64;imageHeight=64;strokeWidth=1.5;" vertex="1" parent="1">
          <mxGeometry x="-120" y="-160" width="820" height="680" as="geometry" />
        </mxCell>
        <mxCell id="9fqdMQlMmsC5MotKpiYv-29" value="" style="rounded=1;whiteSpace=wrap;html=1;strokeColor=#0070F2;fillColor=#EBF8FF;arcSize=24;absoluteArcSize=1;imageWidth=64;imageHeight=64;strokeWidth=1.5;" vertex="1" parent="1">
          <mxGeometry x="-70" y="190" width="720" height="310" as="geometry" />
        </mxCell>
        <mxCell id="PffNvNI2UyX-LuNegHXy-1" value="Â Business Data Cloud (BDC)" style="image;image=img/lib/sap/SAP_Logo.svg;editableCssRules=.*;verticalLabelPosition=middle;labelBackgroundColor=none;verticalAlign=middle;imageAspect=0;labelPosition=right;align=left;fontSize=16;fontStyle=1;spacingLeft=0;fontColor=#002A86;spacing=0;" vertex="1" parent="1">
          <mxGeometry x="-107" y="-150" width="37" height="19" as="geometry" />
        </mxCell>
        <mxCell id="PffNvNI2UyX-LuNegHXy-2" value="" style="rounded=1;whiteSpace=wrap;html=1;strokeColor=#475E75;fillColor=#ffffff;arcSize=24;absoluteArcSize=1;imageWidth=64;imageHeight=64;strokeWidth=1.5;" vertex="1" parent="1">
          <mxGeometry y="350" width="600" height="120" as="geometry" />
        </mxCell>
        <mxCell id="9fqdMQlMmsC5MotKpiYv-10" value="&lt;font face=&quot;arial&quot; style=&quot;font-size: 16px;&quot;&gt;&lt;b style=&quot;font-size: 16px;&quot;&gt;Primary data products(source-oriented)&lt;/b&gt;&lt;/font&gt;" style="text;html=1;align=left;verticalAlign=middle;resizable=0;points=[];autosize=1;strokeColor=none;fillColor=none;fontSize=12;fontColor=#1d2d3e;fontFamily=Helvetica;" vertex="1" parent="1">
          <mxGeometry x="160" y="350" width="320" height="30" as="geometry" />
        </mxCell>
        <mxCell id="9fqdMQlMmsC5MotKpiYv-12" value="" style="group" vertex="1" connectable="0" parent="1">
          <mxGeometry x="30" y="390" width="250" height="60" as="geometry" />
        </mxCell>
        <mxCell id="9fqdMQlMmsC5MotKpiYv-1" value="" style="rounded=1;whiteSpace=wrap;html=1;strokeColor=#0070F2;fillColor=#EBF8FF;arcSize=24;absoluteArcSize=1;imageWidth=64;imageHeight=64;strokeWidth=1.5;" vertex="1" parent="9fqdMQlMmsC5MotKpiYv-12">
          <mxGeometry width="250" height="60" as="geometry" />
        </mxCell>
        <mxCell id="c0fp60MdVGGigcxVSsxK-2" value="" style="shape=image;editableCssRules=.*;verticalLabelPosition=bottom;labelBackgroundColor=default;verticalAlign=top;aspect=fixed;imageAspect=0;image=data:image/svg+xml,PHN2ZyB4bWxucz0iaHR0cDovL3d3dy53My5vcmcvMjAwMC9zdmciIHZpZXdCb3g9Ii0wLjUgLTAuNSAyNS4yNjYgMjgiIGhlaWdodD0iMjgiIHdpZHRoPSIyNS4yNjYiPiYjeGE7CSAgPHN0eWxlIHR5cGU9InRleHQvY3NzIj4uc3QwIHsgc3RvcC1jb2xvcjogcmdiKDM1LCAxNDksIDI1NSk7IH0gLnN0MSB7IHN0b3AtY29sb3I6IHJnYigwLCA4NywgMjEwKTsgfSA8L3N0eWxlPiYjeGE7CTxkZWZzPiYjeGE7CQk8bGluZWFyR3JhZGllbnQgZ3JhZGllbnRVbml0cz0idXNlclNwYWNlT25Vc2UiIHkyPSIyMy4xMTIiIHgyPSIyMy4xMzYiIHkxPSIzLjQ3NCIgeDE9IjEuNzkxIiBpZD0iQSI+JiN4YTsJCQk8c3RvcCBjbGFzcz0ic3QwIi8+JiN4YTsJCQk8c3RvcCBjbGFzcz0ic3QxIiBvZmZzZXQ9IjEiLz4mI3hhOwkJPC9saW5lYXJHcmFkaWVudD4mI3hhOwk8L2RlZnM+JiN4YTsJPHBhdGggZmlsbD0idXJsKCNBKSIgZD0iTTI0LjE2NCA2LjY2NGMuNDAxLjI1NS42MDIuNTgzLjYwMi45ODQgMCAuMTA5LS4wMTguMjAxLS4wNTUuMjczdjExLjE1NkExLjM5IDEuMzkgMCAwIDEgMjQgMjAuMzM2bC0xMS4xMDIgNi45NDVjLS4yNTUuMTQ2LS41MjkuMjE5LS44Mi4yMTktLjMyOCAwLS41NjUtLjA3My0uNzExLS4yMTlMLjIxMSAyMC4zMzZhMS43NSAxLjc1IDAgMCAxLS41NDctLjYwMWMtLjEwOS0uMjU1LS4xNjQtLjQ3NC0uMTY0LS42NTZWNy45MjJhMS4zOSAxLjM5IDAgMCAxIC43MTEtMS4yNThsNS41NzgtMy41Yy4yOTItLjEwOS41NjUtLjE2NC44Mi0uMTY0cy40OTIuMDU1LjcxMS4xNjRsMTEuMTU2IDdjLjE4Mi4wNzMuMzI4LjIzNy40MzguNDkyLjE0Ni4yMTkuMjE5LjQxOS4yMTkuNjAydjQuODY3YzAgLjk0OC0uNDU2IDEuNDIyLTEuMzY3IDEuNDIyLS40MDEgMC0uNzQ3LS4xMjgtMS4wMzktLjM4My0uMjU1LS4yNTUtLjM4My0uNjAyLS4zODMtMS4wMzl2LTQuMDQ3TDYuNjA5IDUuOTUzbC00LjE1NiAyLjY4djkuNjI1bDkuNzM0IDYuMTI1IDkuNzM0LTYuMTI1VjguNjMzTDExLjQ3NyAyLjA3Yy0uNDM3LS4yOTItLjY1Ni0uNjc0LS42NTYtMS4xNDggMC0uMTgyLjA3My0uNDU2LjIxOS0uODIuMzI4LS40MDEuNzQ3LS42MDIgMS4yNTgtLjYwMi4yOTIgMCAuNTI5LjA3My43MTEuMjE5ek0xMC4yNzMgMTcuMzgzYy40MzguMjU1LjY1Ni42MzguNjU2IDEuMTQ4IDAgLjI5Mi0uMDczLjU2NS0uMjE5LjgyLS4yOTIuNDAxLS43MTEuNjAyLTEuMjU4LjYwMmExLjU3IDEuNTcgMCAwIDEtLjcxMS0uMTY0bC0yLjc4OS0xLjY5NWMtLjQzNy0uMjkyLS42NTYtLjY1Ni0uNjU2LTEuMDk0IDAtLjI5Mi4wOTEtLjU4My4yNzMtLjg3NS4zMjgtLjQwMS43MjktLjYwMiAxLjIwMy0uNjAyLjI5MiAwIC41MjkuMDczLjcxMS4yMTl6Ii8+JiN4YTs8L3N2Zz4=;" parent="9fqdMQlMmsC5MotKpiYv-12" vertex="1">
          <mxGeometry x="2" y="6" width="21.43" height="24" as="geometry" />
        </mxCell>
        <mxCell id="c0fp60MdVGGigcxVSsxK-3" value="&lt;font face=&quot;arial&quot;&gt;&lt;b style=&quot;&quot;&gt;Asset Mgmt &amp;amp; Perf Data Product&lt;/b&gt;&lt;/font&gt;" style="text;html=1;align=left;verticalAlign=middle;resizable=0;points=[];autosize=1;strokeColor=none;fillColor=none;fontSize=12;fontColor=#1d2d3e;fontFamily=Helvetica;" parent="9fqdMQlMmsC5MotKpiYv-12" vertex="1">
          <mxGeometry x="28" y="1" width="210" height="30" as="geometry" />
        </mxCell>
        <mxCell id="c0fp60MdVGGigcxVSsxK-19" value="Data&amp;nbsp;" style="rounded=1;whiteSpace=wrap;html=1;strokeColor=#0070F2;fillColor=#ffffff;arcSize=24;absoluteArcSize=1;imageWidth=64;imageHeight=64;strokeWidth=1.5;" parent="9fqdMQlMmsC5MotKpiYv-12" vertex="1">
          <mxGeometry x="20" y="30" width="100" height="20" as="geometry" />
        </mxCell>
        <mxCell id="c0fp60MdVGGigcxVSsxK-20" value="Metadata" style="rounded=1;whiteSpace=wrap;html=1;strokeColor=#0070F2;fillColor=#ffffff;arcSize=24;absoluteArcSize=1;imageWidth=64;imageHeight=64;strokeWidth=1.5;" parent="9fqdMQlMmsC5MotKpiYv-12" vertex="1">
          <mxGeometry x="130" y="30" width="100" height="20" as="geometry" />
        </mxCell>
        <mxCell id="9fqdMQlMmsC5MotKpiYv-13" value="" style="group" vertex="1" connectable="0" parent="1">
          <mxGeometry x="320" y="390" width="250" height="60" as="geometry" />
        </mxCell>
        <mxCell id="9fqdMQlMmsC5MotKpiYv-14" value="" style="rounded=1;whiteSpace=wrap;html=1;strokeColor=#0070F2;fillColor=#EBF8FF;arcSize=24;absoluteArcSize=1;imageWidth=64;imageHeight=64;strokeWidth=1.5;" vertex="1" parent="9fqdMQlMmsC5MotKpiYv-13">
          <mxGeometry width="250" height="60" as="geometry" />
        </mxCell>
        <mxCell id="9fqdMQlMmsC5MotKpiYv-15" value="" style="shape=image;editableCssRules=.*;verticalLabelPosition=bottom;labelBackgroundColor=default;verticalAlign=top;aspect=fixed;imageAspect=0;image=data:image/svg+xml,PHN2ZyB4bWxucz0iaHR0cDovL3d3dy53My5vcmcvMjAwMC9zdmciIHZpZXdCb3g9Ii0wLjUgLTAuNSAyNS4yNjYgMjgiIGhlaWdodD0iMjgiIHdpZHRoPSIyNS4yNjYiPiYjeGE7CSAgPHN0eWxlIHR5cGU9InRleHQvY3NzIj4uc3QwIHsgc3RvcC1jb2xvcjogcmdiKDM1LCAxNDksIDI1NSk7IH0gLnN0MSB7IHN0b3AtY29sb3I6IHJnYigwLCA4NywgMjEwKTsgfSA8L3N0eWxlPiYjeGE7CTxkZWZzPiYjeGE7CQk8bGluZWFyR3JhZGllbnQgZ3JhZGllbnRVbml0cz0idXNlclNwYWNlT25Vc2UiIHkyPSIyMy4xMTIiIHgyPSIyMy4xMzYiIHkxPSIzLjQ3NCIgeDE9IjEuNzkxIiBpZD0iQSI+JiN4YTsJCQk8c3RvcCBjbGFzcz0ic3QwIi8+JiN4YTsJCQk8c3RvcCBjbGFzcz0ic3QxIiBvZmZzZXQ9IjEiLz4mI3hhOwkJPC9saW5lYXJHcmFkaWVudD4mI3hhOwk8L2RlZnM+JiN4YTsJPHBhdGggZmlsbD0idXJsKCNBKSIgZD0iTTI0LjE2NCA2LjY2NGMuNDAxLjI1NS42MDIuNTgzLjYwMi45ODQgMCAuMTA5LS4wMTguMjAxLS4wNTUuMjczdjExLjE1NkExLjM5IDEuMzkgMCAwIDEgMjQgMjAuMzM2bC0xMS4xMDIgNi45NDVjLS4yNTUuMTQ2LS41MjkuMjE5LS44Mi4yMTktLjMyOCAwLS41NjUtLjA3My0uNzExLS4yMTlMLjIxMSAyMC4zMzZhMS43NSAxLjc1IDAgMCAxLS41NDctLjYwMWMtLjEwOS0uMjU1LS4xNjQtLjQ3NC0uMTY0LS42NTZWNy45MjJhMS4zOSAxLjM5IDAgMCAxIC43MTEtMS4yNThsNS41NzgtMy41Yy4yOTItLjEwOS41NjUtLjE2NC44Mi0uMTY0cy40OTIuMDU1LjcxMS4xNjRsMTEuMTU2IDdjLjE4Mi4wNzMuMzI4LjIzNy40MzguNDkyLjE0Ni4yMTkuMjE5LjQxOS4yMTkuNjAydjQuODY3YzAgLjk0OC0uNDU2IDEuNDIyLTEuMzY3IDEuNDIyLS40MDEgMC0uNzQ3LS4xMjgtMS4wMzktLjM4My0uMjU1LS4yNTUtLjM4My0uNjAyLS4zODMtMS4wMzl2LTQuMDQ3TDYuNjA5IDUuOTUzbC00LjE1NiAyLjY4djkuNjI1bDkuNzM0IDYuMTI1IDkuNzM0LTYuMTI1VjguNjMzTDExLjQ3NyAyLjA3Yy0uNDM3LS4yOTItLjY1Ni0uNjc0LS42NTYtMS4xNDggMC0uMTgyLjA3My0uNDU2LjIxOS0uODIuMzI4LS40MDEuNzQ3LS42MDIgMS4yNTgtLjYwMi4yOTIgMCAuNTI5LjA3My43MTEuMjE5ek0xMC4yNzMgMTcuMzgzYy40MzguMjU1LjY1Ni42MzguNjU2IDEuMTQ4IDAgLjI5Mi0uMDczLjU2NS0uMjE5LjgyLS4yOTIuNDAxLS43MTEuNjAyLTEuMjU4LjYwMmExLjU3IDEuNTcgMCAwIDEtLjcxMS0uMTY0bC0yLjc4OS0xLjY5NWMtLjQzNy0uMjkyLS42NTYtLjY1Ni0uNjU2LTEuMDk0IDAtLjI5Mi4wOTEtLjU4My4yNzMtLjg3NS4zMjgtLjQwMS43MjktLjYwMiAxLjIwMy0uNjAyLjI5MiAwIC41MjkuMDczLjcxMS4yMTl6Ii8+JiN4YTs8L3N2Zz4=;" vertex="1" parent="9fqdMQlMmsC5MotKpiYv-13">
          <mxGeometry x="2" y="6" width="21.43" height="24" as="geometry" />
        </mxCell>
        <mxCell id="9fqdMQlMmsC5MotKpiYv-16" value="&lt;font face=&quot;arial&quot;&gt;&lt;b style=&quot;&quot;&gt;Workforce Learning Data Product&lt;/b&gt;&lt;/font&gt;" style="text;html=1;align=left;verticalAlign=middle;resizable=0;points=[];autosize=1;strokeColor=none;fillColor=none;fontSize=12;fontColor=#1d2d3e;fontFamily=Helvetica;" vertex="1" parent="9fqdMQlMmsC5MotKpiYv-13">
          <mxGeometry x="28" y="1" width="210" height="30" as="geometry" />
        </mxCell>
        <mxCell id="9fqdMQlMmsC5MotKpiYv-17" value="Data&amp;nbsp;" style="rounded=1;whiteSpace=wrap;html=1;strokeColor=#0070F2;fillColor=#ffffff;arcSize=24;absoluteArcSize=1;imageWidth=64;imageHeight=64;strokeWidth=1.5;" vertex="1" parent="9fqdMQlMmsC5MotKpiYv-13">
          <mxGeometry x="20" y="30" width="100" height="20" as="geometry" />
        </mxCell>
        <mxCell id="9fqdMQlMmsC5MotKpiYv-18" value="Metadata" style="rounded=1;whiteSpace=wrap;html=1;strokeColor=#0070F2;fillColor=#ffffff;arcSize=24;absoluteArcSize=1;imageWidth=64;imageHeight=64;strokeWidth=1.5;" vertex="1" parent="9fqdMQlMmsC5MotKpiYv-13">
          <mxGeometry x="130" y="30" width="100" height="20" as="geometry" />
        </mxCell>
        <mxCell id="9fqdMQlMmsC5MotKpiYv-19" value="" style="rounded=1;whiteSpace=wrap;html=1;strokeColor=#475E75;fillColor=#ffffff;arcSize=24;absoluteArcSize=1;imageWidth=64;imageHeight=64;strokeWidth=1.5;" vertex="1" parent="1">
          <mxGeometry y="220" width="600" height="120" as="geometry" />
        </mxCell>
        <mxCell id="9fqdMQlMmsC5MotKpiYv-20" value="&lt;font face=&quot;arial&quot; style=&quot;font-size: 16px;&quot;&gt;&lt;b style=&quot;font-size: 16px;&quot;&gt;Derieved data products(consumer-oriented)&lt;/b&gt;&lt;/font&gt;" style="text;html=1;align=left;verticalAlign=middle;resizable=0;points=[];autosize=1;strokeColor=none;fillColor=none;fontSize=12;fontColor=#1d2d3e;fontFamily=Helvetica;" vertex="1" parent="1">
          <mxGeometry x="160" y="220" width="360" height="30" as="geometry" />
        </mxCell>
        <mxCell id="9fqdMQlMmsC5MotKpiYv-21" value="" style="group" vertex="1" connectable="0" parent="1">
          <mxGeometry x="180" y="270" width="268" height="60" as="geometry" />
        </mxCell>
        <mxCell id="9fqdMQlMmsC5MotKpiYv-22" value="" style="rounded=1;whiteSpace=wrap;html=1;strokeColor=#0070F2;fillColor=#EBF8FF;arcSize=24;absoluteArcSize=1;imageWidth=64;imageHeight=64;strokeWidth=1.5;" vertex="1" parent="9fqdMQlMmsC5MotKpiYv-21">
          <mxGeometry x="-10" width="270" height="60" as="geometry" />
        </mxCell>
        <mxCell id="9fqdMQlMmsC5MotKpiYv-23" value="" style="shape=image;editableCssRules=.*;verticalLabelPosition=bottom;labelBackgroundColor=default;verticalAlign=top;aspect=fixed;imageAspect=0;image=data:image/svg+xml,PHN2ZyB4bWxucz0iaHR0cDovL3d3dy53My5vcmcvMjAwMC9zdmciIHZpZXdCb3g9Ii0wLjUgLTAuNSAyNS4yNjYgMjgiIGhlaWdodD0iMjgiIHdpZHRoPSIyNS4yNjYiPiYjeGE7CSAgPHN0eWxlIHR5cGU9InRleHQvY3NzIj4uc3QwIHsgc3RvcC1jb2xvcjogcmdiKDM1LCAxNDksIDI1NSk7IH0gLnN0MSB7IHN0b3AtY29sb3I6IHJnYigwLCA4NywgMjEwKTsgfSA8L3N0eWxlPiYjeGE7CTxkZWZzPiYjeGE7CQk8bGluZWFyR3JhZGllbnQgZ3JhZGllbnRVbml0cz0idXNlclNwYWNlT25Vc2UiIHkyPSIyMy4xMTIiIHgyPSIyMy4xMzYiIHkxPSIzLjQ3NCIgeDE9IjEuNzkxIiBpZD0iQSI+JiN4YTsJCQk8c3RvcCBjbGFzcz0ic3QwIi8+JiN4YTsJCQk8c3RvcCBjbGFzcz0ic3QxIiBvZmZzZXQ9IjEiLz4mI3hhOwkJPC9saW5lYXJHcmFkaWVudD4mI3hhOwk8L2RlZnM+JiN4YTsJPHBhdGggZmlsbD0idXJsKCNBKSIgZD0iTTI0LjE2NCA2LjY2NGMuNDAxLjI1NS42MDIuNTgzLjYwMi45ODQgMCAuMTA5LS4wMTguMjAxLS4wNTUuMjczdjExLjE1NkExLjM5IDEuMzkgMCAwIDEgMjQgMjAuMzM2bC0xMS4xMDIgNi45NDVjLS4yNTUuMTQ2LS41MjkuMjE5LS44Mi4yMTktLjMyOCAwLS41NjUtLjA3My0uNzExLS4yMTlMLjIxMSAyMC4zMzZhMS43NSAxLjc1IDAgMCAxLS41NDctLjYwMWMtLjEwOS0uMjU1LS4xNjQtLjQ3NC0uMTY0LS42NTZWNy45MjJhMS4zOSAxLjM5IDAgMCAxIC43MTEtMS4yNThsNS41NzgtMy41Yy4yOTItLjEwOS41NjUtLjE2NC44Mi0uMTY0cy40OTIuMDU1LjcxMS4xNjRsMTEuMTU2IDdjLjE4Mi4wNzMuMzI4LjIzNy40MzguNDkyLjE0Ni4yMTkuMjE5LjQxOS4yMTkuNjAydjQuODY3YzAgLjk0OC0uNDU2IDEuNDIyLTEuMzY3IDEuNDIyLS40MDEgMC0uNzQ3LS4xMjgtMS4wMzktLjM4My0uMjU1LS4yNTUtLjM4My0uNjAyLS4zODMtMS4wMzl2LTQuMDQ3TDYuNjA5IDUuOTUzbC00LjE1NiAyLjY4djkuNjI1bDkuNzM0IDYuMTI1IDkuNzM0LTYuMTI1VjguNjMzTDExLjQ3NyAyLjA3Yy0uNDM3LS4yOTItLjY1Ni0uNjc0LS42NTYtMS4xNDggMC0uMTgyLjA3My0uNDU2LjIxOS0uODIuMzI4LS40MDEuNzQ3LS42MDIgMS4yNTgtLjYwMi4yOTIgMCAuNTI5LjA3My43MTEuMjE5ek0xMC4yNzMgMTcuMzgzYy40MzguMjU1LjY1Ni42MzguNjU2IDEuMTQ4IDAgLjI5Mi0uMDczLjU2NS0uMjE5LjgyLS4yOTIuNDAxLS43MTEuNjAyLTEuMjU4LjYwMmExLjU3IDEuNTcgMCAwIDEtLjcxMS0uMTY0bC0yLjc4OS0xLjY5NWMtLjQzNy0uMjkyLS42NTYtLjY1Ni0uNjU2LTEuMDk0IDAtLjI5Mi4wOTEtLjU4My4yNzMtLjg3NS4zMjgtLjQwMS43MjktLjYwMiAxLjIwMy0uNjAyLjI5MiAwIC41MjkuMDczLjcxMS4yMTl6Ii8+JiN4YTs8L3N2Zz4=;" vertex="1" parent="9fqdMQlMmsC5MotKpiYv-21">
          <mxGeometry x="-7" y="5" width="21.43" height="24" as="geometry" />
        </mxCell>
        <mxCell id="9fqdMQlMmsC5MotKpiYv-24" value="&lt;font face=&quot;arial&quot;&gt;&lt;b style=&quot;&quot;&gt;Training Impact on Asset Performance&lt;/b&gt;&lt;/font&gt;" style="text;html=1;align=left;verticalAlign=middle;resizable=0;points=[];autosize=1;strokeColor=none;fillColor=none;fontSize=12;fontColor=#1d2d3e;fontFamily=Helvetica;" vertex="1" parent="9fqdMQlMmsC5MotKpiYv-21">
          <mxGeometry x="28" y="1" width="240" height="30" as="geometry" />
        </mxCell>
        <mxCell id="9fqdMQlMmsC5MotKpiYv-25" value="Data&amp;nbsp;" style="rounded=1;whiteSpace=wrap;html=1;strokeColor=#0070F2;fillColor=#ffffff;arcSize=24;absoluteArcSize=1;imageWidth=64;imageHeight=64;strokeWidth=1.5;" vertex="1" parent="9fqdMQlMmsC5MotKpiYv-21">
          <mxGeometry x="20" y="30" width="100" height="20" as="geometry" />
        </mxCell>
        <mxCell id="9fqdMQlMmsC5MotKpiYv-26" value="Metadata" style="rounded=1;whiteSpace=wrap;html=1;strokeColor=#0070F2;fillColor=#ffffff;arcSize=24;absoluteArcSize=1;imageWidth=64;imageHeight=64;strokeWidth=1.5;" vertex="1" parent="9fqdMQlMmsC5MotKpiYv-21">
          <mxGeometry x="130" y="30" width="100" height="20" as="geometry" />
        </mxCell>
        <mxCell id="9fqdMQlMmsC5MotKpiYv-30" value="&lt;font face=&quot;arial&quot; style=&quot;font-size: 16px;&quot;&gt;&lt;b style=&quot;font-size: 16px;&quot;&gt;Object Store&lt;/b&gt;&lt;/font&gt;" style="text;html=1;align=left;verticalAlign=middle;resizable=0;points=[];autosize=1;strokeColor=none;fillColor=none;fontSize=12;fontColor=#1d2d3e;fontFamily=Helvetica;rotation=-90;" vertex="1" parent="1">
          <mxGeometry x="-100" y="320" width="120" height="30" as="geometry" />
        </mxCell>
        <mxCell id="9fqdMQlMmsC5MotKpiYv-31" value="SAP BDC Cockpit" style="rounded=1;whiteSpace=wrap;html=1;strokeColor=#0070F2;fillColor=#EBF8FF;arcSize=24;absoluteArcSize=1;imageWidth=64;imageHeight=64;strokeWidth=1.5;" vertex="1" parent="1">
          <mxGeometry x="-70" y="60" width="160" height="100" as="geometry" />
        </mxCell>
        <mxCell id="9fqdMQlMmsC5MotKpiYv-32" value="SAP BW PCE" style="rounded=1;whiteSpace=wrap;html=1;strokeColor=#0070F2;fillColor=#EBF8FF;arcSize=24;absoluteArcSize=1;imageWidth=64;imageHeight=64;strokeWidth=1.5;" vertex="1" parent="1">
          <mxGeometry x="120" y="60" width="160" height="100" as="geometry" />
        </mxCell>
        <mxCell id="9fqdMQlMmsC5MotKpiYv-33" value="SAP Datapshere" style="rounded=1;whiteSpace=wrap;html=1;strokeColor=#0070F2;fillColor=#EBF8FF;arcSize=24;absoluteArcSize=1;imageWidth=64;imageHeight=64;strokeWidth=1.5;" vertex="1" parent="1">
          <mxGeometry x="310" y="60" width="160" height="100" as="geometry" />
        </mxCell>
        <mxCell id="9fqdMQlMmsC5MotKpiYv-34" value="SAP Databticks *" style="rounded=1;whiteSpace=wrap;html=1;strokeColor=#0070F2;fillColor=#EBF8FF;arcSize=24;absoluteArcSize=1;imageWidth=64;imageHeight=64;strokeWidth=1.5;" vertex="1" parent="1">
          <mxGeometry x="500" y="60" width="160" height="100" as="geometry" />
        </mxCell>
        <mxCell id="9fqdMQlMmsC5MotKpiYv-35" value="SAP Analytics Cloud" style="rounded=1;whiteSpace=wrap;html=1;strokeColor=#0070F2;fillColor=#EBF8FF;arcSize=24;absoluteArcSize=1;imageWidth=64;imageHeight=64;strokeWidth=1.5;" vertex="1" parent="1">
          <mxGeometry x="-70" y="-20" width="730" height="60" as="geometry" />
        </mxCell>
        <mxCell id="9fqdMQlMmsC5MotKpiYv-36" value="Insight Applications" style="rounded=1;whiteSpace=wrap;html=1;strokeColor=#0070F2;fillColor=#EBF8FF;arcSize=24;absoluteArcSize=1;imageWidth=64;imageHeight=64;strokeWidth=1.5;" vertex="1" parent="1">
          <mxGeometry x="-70" y="-100" width="730" height="60" as="geometry" />
        </mxCell>
        <mxCell id="9fqdMQlMmsC5MotKpiYv-43" value="" style="shape=image;editableCssRules=.*;verticalLabelPosition=bottom;labelBackgroundColor=default;verticalAlign=top;aspect=fixed;imageAspect=0;image=data:image/svg+xml,PHN2ZyB4bWxucz0iaHR0cDovL3d3dy53My5vcmcvMjAwMC9zdmciIHZpZXdCb3g9Ii0wLjUgLTAuNSAyNS4yNjYgMjgiIGhlaWdodD0iMjgiIHdpZHRoPSIyNS4yNjYiPiYjeGE7CSAgPHN0eWxlIHR5cGU9InRleHQvY3NzIj4uc3QwIHsgc3RvcC1jb2xvcjogcmdiKDM1LCAxNDksIDI1NSk7IH0gLnN0MSB7IHN0b3AtY29sb3I6IHJnYigwLCA4NywgMjEwKTsgfSA8L3N0eWxlPiYjeGE7CTxkZWZzPiYjeGE7CQk8bGluZWFyR3JhZGllbnQgZ3JhZGllbnRVbml0cz0idXNlclNwYWNlT25Vc2UiIHkyPSIyMy4xMTIiIHgyPSIyMy4xMzYiIHkxPSIzLjQ3NCIgeDE9IjEuNzkxIiBpZD0iQSI+JiN4YTsJCQk8c3RvcCBjbGFzcz0ic3QwIi8+JiN4YTsJCQk8c3RvcCBjbGFzcz0ic3QxIiBvZmZzZXQ9IjEiLz4mI3hhOwkJPC9saW5lYXJHcmFkaWVudD4mI3hhOwk8L2RlZnM+JiN4YTsJPHBhdGggZmlsbD0idXJsKCNBKSIgZD0iTTI0LjE2NCA2LjY2NGMuNDAxLjI1NS42MDIuNTgzLjYwMi45ODQgMCAuMTA5LS4wMTguMjAxLS4wNTUuMjczdjExLjE1NkExLjM5IDEuMzkgMCAwIDEgMjQgMjAuMzM2bC0xMS4xMDIgNi45NDVjLS4yNTUuMTQ2LS41MjkuMjE5LS44Mi4yMTktLjMyOCAwLS41NjUtLjA3My0uNzExLS4yMTlMLjIxMSAyMC4zMzZhMS43NSAxLjc1IDAgMCAxLS41NDctLjYwMWMtLjEwOS0uMjU1LS4xNjQtLjQ3NC0uMTY0LS42NTZWNy45MjJhMS4zOSAxLjM5IDAgMCAxIC43MTEtMS4yNThsNS41NzgtMy41Yy4yOTItLjEwOS41NjUtLjE2NC44Mi0uMTY0cy40OTIuMDU1LjcxMS4xNjRsMTEuMTU2IDdjLjE4Mi4wNzMuMzI4LjIzNy40MzguNDkyLjE0Ni4yMTkuMjE5LjQxOS4yMTkuNjAydjQuODY3YzAgLjk0OC0uNDU2IDEuNDIyLTEuMzY3IDEuNDIyLS40MDEgMC0uNzQ3LS4xMjgtMS4wMzktLjM4My0uMjU1LS4yNTUtLjM4My0uNjAyLS4zODMtMS4wMzl2LTQuMDQ3TDYuNjA5IDUuOTUzbC00LjE1NiAyLjY4djkuNjI1bDkuNzM0IDYuMTI1IDkuNzM0LTYuMTI1VjguNjMzTDExLjQ3NyAyLjA3Yy0uNDM3LS4yOTItLjY1Ni0uNjc0LS42NTYtMS4xNDggMC0uMTgyLjA3My0uNDU2LjIxOS0uODIuMzI4LS40MDEuNzQ3LS42MDIgMS4yNTgtLjYwMi4yOTIgMCAuNTI5LjA3My43MTEuMjE5ek0xMC4yNzMgMTcuMzgzYy40MzguMjU1LjY1Ni42MzguNjU2IDEuMTQ4IDAgLjI5Mi0uMDczLjU2NS0uMjE5LjgyLS4yOTIuNDAxLS43MTEuNjAyLTEuMjU4LjYwMmExLjU3IDEuNTcgMCAwIDEtLjcxMS0uMTY0bC0yLjc4OS0xLjY5NWMtLjQzNy0uMjkyLS42NTYtLjY1Ni0uNjU2LTEuMDk0IDAtLjI5Mi4wOTEtLjU4My4yNzMtLjg3NS4zMjgtLjQwMS43MjktLjYwMiAxLjIwMy0uNjAyLjI5MiAwIC41MjkuMDczLjcxMS4yMTl6Ii8+JiN4YTs8L3N2Zz4=;" vertex="1" parent="1">
          <mxGeometry x="320" y="130" width="21.43" height="24" as="geometry" />
        </mxCell>
        <mxCell id="9fqdMQlMmsC5MotKpiYv-44" value="&lt;font face=&quot;arial&quot; style=&quot;font-size: 13px;&quot;&gt;&lt;b style=&quot;&quot;&gt;Data Catalog&lt;/b&gt;&lt;/font&gt;" style="text;html=1;align=left;verticalAlign=middle;resizable=0;points=[];autosize=1;strokeColor=none;fillColor=none;fontSize=12;fontColor=#1d2d3e;fontFamily=Helvetica;" vertex="1" parent="1">
          <mxGeometry x="348" y="127" width="100" height="30" as="geometry" />
        </mxCell>
        <mxCell id="9fqdMQlMmsC5MotKpiYv-72" style="edgeStyle=orthogonalEdgeStyle;rounded=0;orthogonalLoop=1;jettySize=auto;html=1;entryX=0.563;entryY=0.981;entryDx=0;entryDy=0;entryPerimeter=0;dashed=1;" edge="1" parent="1" source="zkFD7HPNTwiKwkIUsyC6-5" target="9fqdMQlMmsC5MotKpiYv-1">
          <mxGeometry relative="1" as="geometry" />
        </mxCell>
        <mxCell id="9fqdMQlMmsC5MotKpiYv-73" style="edgeStyle=orthogonalEdgeStyle;rounded=0;orthogonalLoop=1;jettySize=auto;html=1;entryX=0.318;entryY=1.002;entryDx=0;entryDy=0;entryPerimeter=0;dashed=1;" edge="1" parent="1" source="zkFD7HPNTwiKwkIUsyC6-7" target="9fqdMQlMmsC5MotKpiYv-14">
          <mxGeometry relative="1" as="geometry" />
        </mxCell>
      </root>
    </mxGraphModel>
  </diagram>
  <diagram id="UiIJJSRNoz5hO-SHNxmM" name="Page-2">
    <mxGraphModel dx="1026" dy="743" grid="1" gridSize="10" guides="1" tooltips="1" connect="1" arrows="1" fold="1" page="1" pageScale="1" pageWidth="827" pageHeight="1169" math="0" shadow="0">
      <root>
        <mxCell id="0" />
        <mxCell id="1" parent="0" />
        <mxCell id="TD24z0pvAZjdWzv6N8VS-1" value="" style="rounded=1;whiteSpace=wrap;html=1;strokeColor=#0070F2;fillColor=#EBF8FF;arcSize=24;absoluteArcSize=1;imageWidth=64;imageHeight=64;strokeWidth=1.5;dashed=1;dashPattern=8 8;" vertex="1" parent="1">
          <mxGeometry x="1204" y="486.25" width="313" height="407.5" as="geometry" />
        </mxCell>
        <mxCell id="TD24z0pvAZjdWzv6N8VS-2" value="&lt;p style=&quot;margin-top: 6pt ; margin-bottom: 0pt ; margin-left: 0in ; direction: ltr ; unicode-bidi: embed ; vertical-align: baseline ; word-break: normal ; font-size: 14px&quot;&gt;&lt;br&gt;&lt;/p&gt;" style="rounded=1;whiteSpace=wrap;html=1;align=center;fontStyle=1;verticalAlign=middle;strokeColor=#0070F2;fillColor=#EBF8FF;strokeWidth=1.5;fontSize=12;fontFamily=Helvetica;container=0;recursiveResize=0;collapsible=0;fontColor=default;arcSize=2;" vertex="1" parent="1">
          <mxGeometry x="230" y="290" width="1350" height="674" as="geometry" />
        </mxCell>
        <mxCell id="TD24z0pvAZjdWzv6N8VS-3" style="edgeStyle=orthogonalEdgeStyle;rounded=0;orthogonalLoop=1;jettySize=auto;html=1;exitX=0.5;exitY=1;exitDx=0;exitDy=0;" edge="1" parent="1">
          <mxGeometry relative="1" as="geometry">
            <mxPoint x="516.3" y="588.5" as="sourcePoint" />
            <mxPoint x="516.3" y="588.5" as="targetPoint" />
          </mxGeometry>
        </mxCell>
        <mxCell id="TD24z0pvAZjdWzv6N8VS-4" value="&lt;span style=&quot;caret-color: rgba(0, 0, 0, 0); color: rgba(0, 0, 0, 0); font-family: monospace; font-size: 0px; font-style: normal; font-variant-caps: normal; font-weight: 400; letter-spacing: normal; text-align: start; text-indent: 0px; text-transform: none; word-spacing: 0px; -webkit-text-stroke-width: 0px; background-color: rgb(248, 249, 250); text-decoration: none; float: none; display: inline !important;&quot;&gt;%3CmxGraphModel%3E%3Croot%3E%3CmxCell%20id%3D%220%22%2F%3E%3CmxCell%20id%3D%221%22%20parent%3D%220%22%2F%3E%3CmxCell%20id%3D%222%22%20value%3D%22%26lt%3Bp%20style%3D%26quot%3Bcaret-color%3A%20rgb(0%2C%200%2C%200)%3B%20color%3A%20rgb(0%2C%200%2C%200)%3B%20margin-top%3A%200pt%3B%20margin-bottom%3A%200pt%3B%20margin-left%3A%200in%3B%20direction%3A%20ltr%3B%20unicode-bidi%3A%20embed%3B%20word-break%3A%20normal%3B%26quot%3B%26gt%3B%26lt%3Bspan%20style%3D%26quot%3Bcolor%3A%20rgb(89%2C%2089%2C%2089)%3B%20font-size%3A%2016px%3B%20font-weight%3A%20700%3B%26quot%3B%26gt%3BSAP%20Data%20Warehouse%26amp%3Bnbsp%3BCloud%26lt%3B%2Fspan%26gt%3B%26lt%3Bbr%26gt%3B%26lt%3B%2Fp%26gt%3B%22%20style%3D%22rounded%3D0%3BwhiteSpace%3Dwrap%3Bhtml%3D1%3BstrokeColor%3D%23B3B3B3%3BstrokeWidth%3D2%3BfillColor%3Dnone%3Balign%3Dleft%3BverticalAlign%3Dtop%3BfontSize%3D11%3BfontFamily%3DArial%3Bcontainer%3D1%3BrecursiveResize%3D0%3Bcollapsible%3D0%3BfontColor%3D%23595959%3B%22%20vertex%3D%221%22%20parent%3D%221%22%3E%3CmxGeometry%20x%3D%22600%22%20y%3D%22560%22%20width%3D%22400%22%20height%3D%22435%22%20as%3D%22geometry%22%2F%3E%3C%2FmxCell%3E%3CmxCell%20id%3D%223%22%20style%3D%22edgeStyle%3Dnone%3Brounded%3D0%3BorthogonalLoop%3D1%3BjettySize%3Dauto%3Bhtml%3D1%3BentryX%3D0%3BentryY%3D0.5%3BentryDx%3D0%3BentryDy%3D0%3Bdashed%3D1%3BstartArrow%3Dclassic%3BstartFill%3D1%3BendArrow%3Dclassic%3BendFill%3D1%3BstrokeColor%3D%23C0399F%3BstrokeWidth%3D1%3BfontSize%3D16%3B%22%20edge%3D%221%22%20parent%3D%222%22%3E%3CmxGeometry%20relative%3D%221%22%20as%3D%22geometry%22%3E%3CmxPoint%20x%3D%22377%22%20y%3D%2277%22%20as%3D%22sourcePoint%22%2F%3E%3CmxPoint%20x%3D%22377%22%20y%3D%2277%22%20as%3D%22targetPoint%22%2F%3E%3C%2FmxGeometry%3E%3C%2FmxCell%3E" style="rounded=1;whiteSpace=wrap;html=1;strokeColor=#0070F2;strokeWidth=2;fillColor=default;align=left;verticalAlign=top;fontSize=11;fontFamily=Arial;container=0;recursiveResize=0;collapsible=0;fontColor=#595959;arcSize=3;" vertex="1" parent="1">
          <mxGeometry x="289.54999999999995" y="506.5" width="823.45" height="441.5" as="geometry" />
        </mxCell>
        <mxCell id="TD24z0pvAZjdWzv6N8VS-5" value="" style="rounded=1;whiteSpace=wrap;html=1;fontSize=11;fontFamily=Arial;align=left;verticalAlign=top;fillColor=default;strokeColor=#0070F2;fontColor=#595959;strokeWidth=2;container=0;arcSize=3;" vertex="1" parent="1">
          <mxGeometry x="291" y="356.5" width="823" height="127.5" as="geometry" />
        </mxCell>
        <mxCell id="TD24z0pvAZjdWzv6N8VS-6" style="edgeStyle=none;rounded=0;orthogonalLoop=1;jettySize=auto;html=1;entryX=0;entryY=0.5;entryDx=0;entryDy=0;dashed=1;startArrow=classic;startFill=1;endArrow=classic;endFill=1;strokeColor=#C0399F;strokeWidth=1;fontSize=16;" edge="1" parent="1">
          <mxGeometry relative="1" as="geometry">
            <mxPoint x="666.55" y="730.9700000000003" as="sourcePoint" />
            <mxPoint x="666.55" y="730.9700000000003" as="targetPoint" />
          </mxGeometry>
        </mxCell>
        <mxCell id="TD24z0pvAZjdWzv6N8VS-7" style="edgeStyle=orthogonalEdgeStyle;rounded=0;orthogonalLoop=1;jettySize=auto;html=1;exitX=0.5;exitY=1;exitDx=0;exitDy=0;fontFamily=Helvetica;fontSize=15;fontColor=#595959;strokeColor=#595959;strokeWidth=2;" edge="1" parent="1">
          <mxGeometry relative="1" as="geometry">
            <mxPoint x="414.8144736842105" y="351" as="sourcePoint" />
            <mxPoint x="414.8144736842105" y="351" as="targetPoint" />
          </mxGeometry>
        </mxCell>
        <mxCell id="TD24z0pvAZjdWzv6N8VS-8" value="Â Business Data Cloud (BDC)" style="image;image=img/lib/sap/SAP_Logo.svg;editableCssRules=.*;verticalLabelPosition=middle;labelBackgroundColor=none;verticalAlign=middle;imageAspect=0;labelPosition=right;align=left;fontSize=16;fontStyle=1;spacingLeft=0;fontColor=#002A86;spacing=0;" vertex="1" parent="1">
          <mxGeometry x="254" y="304" width="37" height="19" as="geometry" />
        </mxCell>
        <mxCell id="TD24z0pvAZjdWzv6N8VS-9" value="" style="rounded=1;whiteSpace=wrap;html=1;fontSize=11;fontFamily=Arial;align=left;verticalAlign=top;fillColor=#f5f5f5;strokeColor=#666666;strokeWidth=2;container=0;arcSize=3;fontColor=#333333;" vertex="1" parent="1">
          <mxGeometry x="1157" y="356.5" width="393" height="586.5" as="geometry" />
        </mxCell>
        <mxCell id="TD24z0pvAZjdWzv6N8VS-10" value="Insight Apps / Data Packages" style="rounded=1;whiteSpace=wrap;html=1;strokeColor=#0070F2;strokeWidth=2;fillColor=#EBF8FF;align=center;verticalAlign=top;fontStyle=1;fontSize=13;fontFamily=Arial;fontColor=#000000;spacingTop=6;container=0;" vertex="1" parent="1">
          <mxGeometry x="1193.5" y="416.5" width="320" height="42" as="geometry" />
        </mxCell>
        <mxCell id="TD24z0pvAZjdWzv6N8VS-11" value="&lt;b style=&quot;font-size: 14px;&quot;&gt;SAP BDC Cockpit&lt;/b&gt;" style="text;html=1;strokeColor=none;fillColor=none;align=center;verticalAlign=middle;whiteSpace=wrap;rounded=0;fontSize=14;fontColor=#000000;opacity=0;container=0;" vertex="1" parent="1">
          <mxGeometry x="1158.38" y="373.9999999999999" width="193.62" height="30" as="geometry" />
        </mxCell>
        <mxCell id="TD24z0pvAZjdWzv6N8VS-12" value="&lt;b&gt;DSP CORE Capabilities +&lt;/b&gt;&lt;div&gt;&lt;br&gt;&lt;/div&gt;&lt;div&gt;Knowledge Graph / Semantics / BDC &amp;amp; Data Marketplace / Joule&lt;/div&gt;" style="rounded=1;whiteSpace=wrap;html=1;strokeColor=#188918;fillColor=#f5fae5;arcSize=24;absoluteArcSize=1;imageWidth=64;imageHeight=64;strokeWidth=1;" vertex="1" parent="1">
          <mxGeometry x="315" y="866" width="768" height="50" as="geometry" />
        </mxCell>
        <mxCell id="TD24z0pvAZjdWzv6N8VS-20" value="" style="group" vertex="1" connectable="0" parent="1">
          <mxGeometry x="298" y="516" width="203" height="33.00000000000006" as="geometry" />
        </mxCell>
        <mxCell id="TD24z0pvAZjdWzv6N8VS-21" value="&lt;font style=&quot;font-size: 14px;&quot;&gt;&lt;span style=&quot;font-size: 14px;&quot;&gt;&lt;b style=&quot;font-size: 14px;&quot;&gt;SAP Datasphere&lt;/b&gt;&lt;/span&gt;&lt;/font&gt;" style="text;whiteSpace=wrap;html=1;align=center;spacing=0;container=0;fontColor=default;fontSize=14;" vertex="1" parent="TD24z0pvAZjdWzv6N8VS-20">
          <mxGeometry y="2.9400000000000546" width="203" height="30.06" as="geometry" />
        </mxCell>
        <mxCell id="TD24z0pvAZjdWzv6N8VS-22" value="" style="shape=image;verticalLabelPosition=bottom;verticalAlign=top;imageAspect=0;aspect=fixed;image=data:image/svg+xml,PHN2ZyB4bWxucz0iaHR0cDovL3d3dy53My5vcmcvMjAwMC9zdmciIGZpbGw9Im5vbmUiIHZpZXdCb3g9IjAgMCA0OSA0OSIgaGVpZ2h0PSI0OSIgd2lkdGg9IjQ5Ij4mI3hhOzxnIGNsaXAtcGF0aD0idXJsKCNjbGlwMF8yNjIyXzM5MTApIj4mI3hhOzxjaXJjbGUgc3Ryb2tlLXdpZHRoPSIwLjg1NzE0MyIgc3Ryb2tlPSIjRDVEQUREIiBmaWxsPSJ1cmwoI3BhaW50MF9saW5lYXJfMjYyMl8zOTEwKSIgcj0iMjMuNTcxNCIgY3k9IjI0LjAzNDkiIGN4PSIyNC41Ii8+JiN4YTs8cGF0aCBmaWxsPSJ1cmwoI3BhaW50MV9yYWRpYWxfMjYyMl8zOTEwKSIgZD0iTTI0LjE0NzEgMjguNDU4MUgyNC4xMTk3QzIyLjY4ODMgMjguNDUyNCAyMS4zMTczIDI3LjkxNzMgMjAuMzA1MSAyNi45NjkzQzE5LjI5MjkgMjYuMDIxNCAxOC43MjE2IDI0LjczNzIgMTguNzE1NSAyMy4zOTY2VjIzLjM0MzlDMTguNzA5MyAyMi4wMTE3IDE4LjgxMjkgMjAuNjgwOSAxOS4wMjU0IDE5LjM2MzZDMTkuMTk4OSAxOC4yNjQxIDE5LjQ3MTggMTcuMTgwNCAxOS44NDEgMTYuMTI0MkMyMC4xNzgzIDE1LjE5MjkgMjAuNTYyNiAxNC40NjM2IDIwLjk5MzkgMTMuOTM2M0MyMS40MjUzIDEzLjQwOSAyMS44NjYzIDEzLjE0NTMgMjIuMzE2OSAxMy4xNDUzQzIzLjIzNjMgMTMuMTQ1MyAyMy45MjU3IDEzLjQ5NjcgMjQuMzg0OSAxNC4xOTk1QzI0LjgyNzYgMTQuODczMiAyNS4wNjU5IDE1LjY0NjUgMjUuMDc1MSAxNi40MzY1QzI1LjA2NzkgMTMuOTE4OCAyNC43MzQ2IDEyLjMwNzUgMjQuMDc1MSAxMS42MDI2QzIzLjQwODMgMTAuODg5OSAyMi44MjIyIDEwLjUzNCAyMi4zMTY5IDEwLjUzNDlDMjEuNjk3MiAxMC41MzQ5IDIxLjEwNTkgMTAuNzk4NiAyMC41NDI5IDExLjMyNTlDMTkuOTk4MSAxMS44NzEyIDE5LjUxNzggMTIuNjgxIDE5LjEwMTggMTMuNzU1NEMxOC42MzExIDE1LjA1ODMgMTguMjkzMyAxNi40MDAxIDE4LjA5MyAxNy43NjI4QzE3LjgzMDQgMTkuNjMyOSAxNy42OTkgMjEuNTE3MSAxNy42OTk1IDIzLjQwMzNDMTcuNzAwMSAyNC4wOTI2IDE3LjkwNDYgMjQuNzY4MSAxOC4yOTA0IDI1LjM1NTFDMTguNjY4OCAyNS45NzQzIDE5LjE3MDIgMjYuNTE5OSAxOS43Njc2IDI2Ljk2MjZDMjAuMzg5NyAyNy40MjYxIDIxLjA4ODggMjcuNzkwOCAyMS44MzcgMjguMDQyNEMyMi41NTE2IDI4LjMxNjYgMjMuMzE1OCAyOC40NTk2IDI0LjA4OCAyOC40NjM1TDI0LjE0NzEgMjguNDU4MVoiLz4mI3hhOzxwYXRoIGZpbGw9InVybCgjcGFpbnQyX3JhZGlhbF8yNjIyXzM5MTApIiBkPSJNMjIuNjU1NiAzNC41MjI1QzIxLjk5ODQgMzQuNzMzIDIxLjQ0NSAzNC43MTUxIDIwLjk5NTQgMzQuNDY4NUMyMC42NzggMzQuMjE4NSAyMC40MjI4IDMzLjkwNjcgMjAuMjQ3NCAzMy41NTQ3QzIwLjA1ODQgMzMuMTk4MiAxOS45NTk3IDMyLjgwNTYgMTkuOTU5MiAzMi40MDc0QzE5Ljk1ODYgMzIuMzQxNSAxOS45NjM1IDMyLjI3NTYgMTkuOTczNiAzMi4yMTA0QzE5Ljk4MSAzMi4xNTg2IDE5Ljk4NTYgMzIuMTA2NSAxOS45ODczIDMyLjA1NDNDMTkuNjgzMyAzMy4zMzUyIDE5LjU4NzUgMzQuNDQ5OSAxOS42OTk4IDM1LjM5ODVDMTkuODEyMiAzNi4zNDc4IDIwLjE4NzkgMzYuOTgwNCAyMC44MjY4IDM3LjI5NjJDMjEuMzcwNiAzNy41OTU4IDIyLjAzNjQgMzcuNjEzNCAyMi44MjQyIDM3LjM0ODhDMjMuNjMxMiAzNy4xMDIzIDI0LjQ4OTYgMzYuNjI4MSAyNS4zOTk1IDM1LjkyNjJDMjYuNDIzNSAzNS4xMTI2IDI3LjM2MTcgMzQuMjA4NiAyOC4yMDEgMzMuMjI2N0MyOS4xODQzIDMyLjA1OCAzMC4wNzc2IDMwLjgyNTMgMzAuODc0MyAyOS41Mzc5TDMxLjE4NDEgMjkuMDg5OEMzMC44NjU2IDI4Ljk1NDggMzAuNTcwMiAyOC44MTU4IDMwLjI5NzggMjguNjg0OUMzMC4wNDM3IDI4LjU2MjcgMjkuNzkzNCAyOC40Mjc3IDI5LjU0OCAyOC4yODE5QzI4LjgyMTYgMjkuMzEyMyAyOC4wMjM1IDMwLjI5NjggMjcuMTU5MSAzMS4yMjkxQzI2LjQzNjMgMzIuMDEzNiAyNS42NDA2IDMyLjczNjMgMjQuNzgxMiAzMy4zODg3QzI0LjAyMTMgMzMuOTUwMiAyMy4zMTI3IDM0LjMyODEgMjIuNjU1NiAzNC41MjI1WiIvPiYjeGE7PHBhdGggZmlsbD0idXJsKCNwYWludDNfcmFkaWFsXzI2MjJfMzkxMCkiIGQ9Ik0zMi42OTg3IDI2LjA3MzFDMzIuODY3MyAyNS42OTUyIDMzLjAyNTkgMjUuMzEzMiAzMy4xNzcyIDI0LjkyNThIMzMuMTgyOUMzMy4wMTQzIDI0LjY5NzcgMzIuODQgMjQuNDg1OCAzMi42NjI3IDI0LjI4MzRDMzIuNDg1NCAyNC4wODA5IDMyLjMwMjQgMjMuODgzOCAzMi4xMTUxIDIzLjY4OTVDMzEuODMyNiAyNC4zMDUgMzEuNTU0NSAyNC44NjY0IDMxLjI4MzYgMjUuMzc2N0MzMS4wMzc4IDI1LjgzOTQgMzAuNzcwOCAyNi4yODY2IDMwLjQ4NTYgMjYuNzIwMkMzMC43MzIgMjYuODYyNCAzMC45OTU1IDI2Ljk3NjggMzEuMjcwNiAyNy4wNjExQzMxLjU1MDIgMjcuMTQ5MSAzMS44NDA5IDI3LjIwMjIgMzIuMTM1MyAyNy4yMTlIMzIuMTY0MUMzMi4zNTE0IDI2LjgzMyAzMi41MzAxIDI2LjQ1MSAzMi42OTg3IDI2LjA3MzFaIi8+JiN4YTs8cGF0aCBmaWxsPSJ1cmwoI3BhaW50NF9yYWRpYWxfMjYyMl8zOTEwKSIgZD0iTTMzLjcxMTggMTguMTUxNVYxOC4xNzcxQzMzLjY3OTYgMTguNjQ5OCAzMy42MjA5IDE5LjEyMDcgMzMuNTM2IDE5LjU4NzZDMzMuNDU3MyAyMC4wMDExIDMzLjM1OTQgMjAuNDEwMSAzMy4yNDIzIDIwLjgxNDRDMzMuMzkyMSAyMC45MjEyIDMzLjUzNTggMjEuMDM1MyAzMy42NzI5IDIxLjE1NkMzMy44MDU4IDIxLjI3NDYgMzMuOTUwNiAyMS4zODA4IDM0LjEwNTMgMjEuNDczMkMzNC4xNDQ3IDIxLjMwMzYgMzQuMTczMSAyMS4xMzE4IDM0LjE5MDMgMjAuOTU5QzM0LjIwOSAyMC43NyAzNC4yMTc3IDIwLjU3NTYgMzQuMjE3NyAyMC4zNjUxQzM0LjIxNzggMTkuOTgwMSAzNC4xNzU4IDE5LjU5NjEgMzQuMDkyMyAxOS4yMTkxQzM0LjAxMDcgMTguODUwNSAzMy44ODMgMTguNDkyMiAzMy43MTE4IDE4LjE1MTVaIi8+JiN4YTs8cGF0aCBmaWxsPSJ1cmwoI3BhaW50NV9yYWRpYWxfMjYyMl8zOTEwKSIgZD0iTTE2LjkxNDEgMjUuMjQzTDE2LjgyOTEgMjUuMjk1N0MxNi41NzMxIDI1LjQxNDQgMTYuMzI0NCAyNS41NDY1IDE2LjA4NCAyNS42OTExQzE1Ljg0ODcgMjUuODMxNSAxNS42MjgyIDI1Ljk3MTkgMTUuNDIyNiAyNi4xMTIzTDE1LjA1NjUgMjUuNTMzMkMxNC4yNzIyIDI0LjI0NDYgMTMuNTg1NCAyMi45MDYgMTMuMDAxNSAyMS41MjcyQzEyLjUyMDIgMjAuMzU3NyAxMi4xNTc0IDE5LjE0ODQgMTEuOTE3OCAxNy45MTUzQzExLjcyMDggMTYuODI2NSAxMS42OTczIDE1Ljg5NTIgMTEuODQ3MiAxNS4xMjEzQzExLjk5NyAxNC4zNDc1IDEyLjM0NDMgMTMuODExMiAxMi44ODkxIDEzLjUxMjRDMTMuNTI2MSAxMy4xNzg2IDE0LjMwOTUgMTMuMTk2MSAxNS4yMzk1IDEzLjU2NTFDMTYuMTY5NiAxMy45MzQgMTcuMTM4OSAxNC41OTQgMTguMTQ3NyAxNS41NDUxQzE3LjY3ODEgMTUuMjY0MiAxNy4xNTg5IDE1LjA2MzUgMTYuNjE0NCAxNC45NTI2QzE2LjIwNjkgMTQuODY0OSAxNS43NzkxIDE0LjkyNjIgMTUuNDE4MiAxNS4xMjRDMTQuOTQ4NCAxNS4zNjk3IDE0LjYzODYgMTUuODA4OCAxNC40ODg3IDE2LjQ0MTRDMTQuMzU3MSAxNy4yMTQ4IDE0LjM2MiAxOC4wMDMyIDE0LjUwMzEgMTguNzc1MUMxNC42NzY1IDE5LjgwMzYgMTQuOTU0NCAyMC44MTQyIDE1LjMzMzIgMjEuNzkzMUMxNS43ODE1IDIyLjk3NzkgMTYuMzE3NSAyNC4xMzIxIDE2LjkzNzIgMjUuMjQ3MUwxNi45MTQxIDI1LjI0M1oiLz4mI3hhOzxwYXRoIGZpbGw9InVybCgjcGFpbnQ2X3JhZGlhbF8yNjIyXzM5MTApIiBkPSJNMTYuNTc1NSAyNy43MTk4QzE2Ljc0NTQgMjcuNTA4NCAxNi45Mzg3IDI3LjMxNDMgMTcuMTUxOSAyNy4xNDA4QzE3LjM3NDggMjYuOTYwNSAxNy42MTYyIDI2LjgwMTQgMTcuODcyNSAyNi42NjU3QzE4LjIwOTcgMjcuMTkzOSAxOC41NDYgMjcuNjk5MSAxOC44ODEzIDI4LjE4MTRDMTkuMjE4NSAyOC42NjYgMTkuNTY1OCAyOS4xMjYyIDE5LjkyMzIgMjkuNTY2MkwxOS40NDQ3IDI5LjY0NDVIMTkuNTAwOUMxOS4zMTIyIDI5LjY3OTYgMTkuMTE2MiAyOS43MTA3IDE4LjkwODYgMjkuNzM3N0MxOC43MDExIDI5Ljc2NDcgMTguNDg3OCAyOS43ODYzIDE4LjI2MTYgMjkuODAyNEMxNy45ODAxIDI5LjUwNDYgMTcuNjk4NiAyOS4xNzk4IDE3LjQxNzEgMjguODI3OUMxNy4xMzU2IDI4LjQ3NjEgMTYuODU0MSAyOC4xMTYyIDE2LjU3MjYgMjcuNzQ4MUwxNi41NzU1IDI3LjcxOThaIi8+JiN4YTs8cGF0aCBmaWxsPSJ1cmwoI3BhaW50N19yYWRpYWxfMjYyMl8zOTEwKSIgZD0iTTI0LjExOTcgMzMuNTE5NkMyMy41Mjk1IDMzLjQ3MiAyMi45NTI4IDMzLjMyNzEgMjIuNDE2MyAzMy4wOTE4QzIxLjg5ODcgMzIuODY0OSAyMS40MTk4IDMyLjU2NzUgMjAuOTk1NCAzMi4yMDlMMjIuMDM1OSAzMS44MzkyVjMxLjg2NjJDMjIuMzU1OCAzMi4xNjQ5IDIyLjY4OTIgMzIuNDU0NyAyMy4wMzYgMzIuNzM1NEMyMy4zODgyIDMzLjAyMDggMjMuNzU5MyAzMy4yODQ5IDI0LjE0NzEgMzMuNTI2NEwyNC4xMTk3IDMzLjUxOTZaIi8+JiN4YTs8cGF0aCBmaWxsPSJ1cmwoI3BhaW50OF9yYWRpYWxfMjYyMl8zOTEwKSIgZD0iTTI2Ljg3OCAyNy43MTk4SDI2LjkwNTRDMjcuNzI4MSAyNy4yODQzIDI4LjQxMjggMjYuNjUyMyAyOC44ODk4IDI1Ljg4ODJDMjkuMzg0NiAyNS4xMTM1IDI5LjY0MjkgMjQuMjI2NCAyOS42MzYzIDIzLjMyMzdDMjkuNjM3NyAyMi44NjAzIDI5LjU3MTMgMjIuMzk4OSAyOS40Mzg5IDIxLjk1MjRMMjkuNDIwNSAyMS44OTExQzI5LjUyNDMgMjIuMTg1NSAyOS42MDU2IDIyLjQ4NyAyOS42NjM3IDIyLjc5MzNDMjkuNzk0OSAyMy41MjE5IDI5Ljc5NDkgMjQuMjY2IDI5LjY2MzcgMjQuOTk0N0MyOS41Mzk5IDI1LjcwMzYgMjkuMjgyNyAyNi4zODY0IDI4LjkwNDMgMjcuMDExMkMyOC41Mzg0IDI3LjYxNyAyOC4wMDM0IDI4LjExODIgMjcuMzU2NSAyOC40NjA4QzI1LjYyOTEgMjkuNDIwMiAyMy44MzI1IDMwLjI2NTggMjEuOTc5NyAzMC45OTE2QzIwLjM4NDggMzEuNTkgMTguOTg2OSAzMS45ODk5IDE3Ljc4NiAzMi4xOTE1QzE2LjU4NTEgMzIuMzkzMSAxNS41OTk4IDMyLjM5NzUgMTQuODMwMyAzMi4yMDVDMTQuMDYxNyAzMi4wMjk1IDEzLjUxNzkgMzEuNjg2NyAxMy4xOTg5IDMxLjE3NjVDMTIuOTUzOSAzMC43NzI1IDEyLjk5NjIgMzAuMTIyMyAxMy4zMjU3IDI5LjIyNjFDMTMuNjUxMiAyOC4zNDA5IDE0Ljk2NzUgMjcuMjc2NSAxNy4yNzQ2IDI2LjAzMzFDMTYuNTQ4NCAyNi40MzE1IDE1LjkzMiAyNi45ODQ3IDE1LjQ3NTkgMjcuNjQ4M0MxNS4wMjQzIDI4LjMxNTkgMTUuMDUyMiAyOS4wNjI4IDE1LjU1OTUgMjkuODg4OEMxNS44MjE4IDMwLjMxMDggMTYuMzA5OCAzMC41NjU1IDE3LjAyMzcgMzAuNjUyOEMxNy43NTU3IDMwLjc0MjggMTguNjI4MSAzMC42ODU2IDE5LjY0MDcgMzAuNDgxNEMyMC43OTM5IDMwLjIzOTggMjEuOTIzNyAyOS45MDk0IDIzLjAxODcgMjkuNDkzNEMyNC4zMjY4IDI4Ljk4NTkgMjUuNTk2NSAyOC4zOTU2IDI2LjgxOSAyNy43MjY1TDI2Ljg3OCAyNy43MTk4WiIvPiYjeGE7PHBhdGggZmlsbD0idXJsKCNwYWludDlfcmFkaWFsXzI2MjJfMzkxMCkiIGQ9Ik0yNi44NDkyIDE4Ljg4ODVDMjYuNDQ0IDE4LjY1NiAyNi4wMDggMTguNDc0NSAyNS41NTIyIDE4LjM0ODZDMjUuMDc3MSAxOC4yMTU5IDI0LjU4MzggMTguMTQ5NSAyNC4wODggMTguMTUxNUMyMy4xMTU0IDE4LjE0MDUgMjIuMTU5MyAxOC4zODcxIDIxLjMyOTcgMTguODYyOEMyMC41MTc3IDE5LjMyNDQgMTkuODQwNyAxOS45Njc3IDE5LjM1OTcgMjAuNzM0OUMxOS43NTEgMjAuMTAyOSAyMC4yNjkyIDE5LjU0NzggMjAuODg1OSAxOS4xMDA0QzIxLjQ5MDkgMTguNjMyNSAyMi4xNzIxIDE4LjI1ODQgMjIuOTAzNCAxNy45OTIyQzIzLjYyMTIgMTcuNzMxMiAyNC4zODQ1IDE3LjU5NzEgMjUuMTU0NSAxNy41OTY4QzI1LjkwNTEgMTcuNTkyNSAyNi42NDM1IDE3Ljc3NDYgMjcuMjk0NSAxOC4xMjQ1QzI5LjAyOTIgMTkuMDM0IDMwLjY5NCAyMC4wNTYgMzIuMjc2NSAyMS4xODNDMzMuNjQ1NSAyMi4xODQ1IDM0LjcxOTcgMjMuMTIwMyAzNS40OTg4IDIzLjk5MDVDMzYuMjc4IDI0Ljg2MDYgMzYuNzggMjUuNjU1NiAzNy4wMDQ4IDI2LjM3NTVDMzcuMjI5NiAyNy4wOTUzIDM3LjE4MTYgMjcuNzEwOCAzNi44NjA3IDI4LjIyMTlDMzYuNjE3NiAyOC42MjU5IDM1Ljk5ODQgMjguOTIwMiAzNS4wMDMxIDI5LjEwNDZDMzQuMDMzNSAyOS4yODQzIDMyLjQxMjkgMjguNzY3NyAzMC4xNDE0IDI3LjU1NDdDMzAuODUwNiAyNy45MTg3IDMxLjY0MDkgMjguMTI0OCAzMi40NTA5IDI4LjE1NThDMzMuMzA0IDI4LjE4MTkgMzMuOTg0MiAyNy43ODE5IDM0LjQ5MTUgMjYuOTU1OEMzNC43MzQ2IDI2LjUzNDcgMzQuNzI0OSAyNi4wMDc0IDM0LjQ2MjcgMjUuMzc0QzM0LjE4MjEgMjQuNzYwMyAzMy42OTQ1IDI0LjA4ODEgMzIuOTk5OSAyMy4zNTc0QzMyLjIwMzcgMjIuNTM2OSAzMS4zMzI5IDIxLjc4MjcgMzAuMzk3MyAyMS4xMDM0QzI5LjI2NyAyMC4yNzQ1IDI4LjA3MjMgMTkuNTI1NiAyNi44MjMzIDE4Ljg2MjhMMjYuODQ5MiAxOC44ODg1WiIvPiYjeGE7PHBhdGggZmlsbD0idXJsKCNwYWludDEwX3JhZGlhbF8yNjIyXzM5MTApIiBkPSJNMjYuNTA2MiAxNC44Mjk4QzI4LjExNjggMTQuODIzMyAyOS43MjU3IDE0LjkyODkgMzEuMzE5NiAxNS4xNDU2QzMyLjYzODUgMTUuMzM0MyAzMy45MzQ1IDE1LjY0MzUgMzUuMTg5IDE2LjA2ODhDMzYuMjg3MSAxNi40NTQ5IDM3LjE1NTIgMTYuOTA0OCAzNy43OTMxIDE3LjQxODZDMzguNDMwMSAxNy45NDUgMzguNzQ5IDE4LjQ5ODQgMzguNzUgMTkuMDc4OEMzOC43NSAxOS43NDY0IDM4LjMzNzQgMjAuMzY2IDM3LjUxMjEgMjAuOTM3NEMzNi42ODY4IDIxLjUwODcgMzUuNTgxOSAyMS45Nzg5IDM0LjE5NzUgMjIuMzQ3OEMzNC42OTMgMjIuMDk4OCAzNS4xNDAyIDIxLjc3MzUgMzUuNTIwNCAyMS4zODU1QzM1LjgxNDkgMjEuMDk3IDM1Ljk4NTMgMjAuNzE2OCAzNS45OTg5IDIwLjMxNzhDMzUuOTk4OSAxOS44NDQ1IDM1Ljc0NTcgMTkuMzg3OSAzNS4yMzk0IDE4Ljk0NzhDMzQuNjAzNCAxOC40NDc2IDMzLjg3OTIgMTguMDU0OCAzMy4wOTk0IDE3Ljc4NzFDMzIuMDU5MSAxNy40MTY4IDMwLjk4NTUgMTcuMTM0NCAyOS44OTE0IDE2Ljk0MzVDMjguNTgyMyAxNi43MDU5IDI3LjI1NTMgMTYuNTY1MSAyNS45MjI2IDE2LjUyMjRWMTQuODI5OEgyNi41MDYyWiIvPiYjeGE7PHBhdGggZmlsbD0idXJsKCNwYWludDExX3JhZGlhbF8yNjIyXzM5MTApIiBkPSJNMjQuMDkwOSAxNi4yNTI0QzI0LjA5MDkgMTYuMDIyMSAyNC4wNjI4IDE1Ljc5MjUgMjQuMDA3MyAxNS41NjgxQzIzLjk1NDIgMTUuMzUyNSAyMy44ODI3IDE1LjE0MTIgMjMuNzkzNSAxNC45MzYzQzIzLjI3MyAxNC45NzU3IDIyLjc3NjUgMTUuMDI0OCAyMi4zMDM5IDE1LjA4MzVDMjEuODI2NCAxNS4xNDI5IDIxLjM2MTkgMTUuMjE3NiAyMC45MTA0IDE1LjMwNzZMMjEuMDc5IDE1LjI4MTlDMjAuOTg1MyAxNS40NTc0IDIwLjg4NTkgMTUuNjY1MyAyMC43ODM1IDE1LjkwMTVDMjAuNjgxMiAxNi4xMzc3IDIwLjU5MTkgMTYuMzcxMiAyMC41MTY5IDE2LjU5OTNMMjAuNDYwNyAxNi43MDQ2QzIxLjA2MjIgMTYuNjQ5NyAyMS42NjI2IDE2LjYwNDcgMjIuMjYyMSAxNi41Njk2QzIyLjg2MTYgMTYuNTM0NSAyMy40NjIxIDE2LjUxNyAyNC4wNjM1IDE2LjUxN0MyNC4wODE3IDE2LjQ3OTcgMjQuMDkxMSAxNi40MzkyIDI0LjA5MDkgMTYuMzk4MlYxNi4yNTI0WiIvPiYjeGE7PHBhdGggZmlsbD0idXJsKCNwYWludDEyX3JhZGlhbF8yNjIyXzM5MTApIiBkPSJNMjkuNDIwNSAyMS44OTExQzI5LjI5NTUgMjEuNDg1NiAyOS4xMTI3IDIxLjA5NzUgMjguODc2OSAyMC43Mzc2QzI5LjA5NzkgMjEuMTA1NCAyOS4yNzk4IDIxLjQ5MTcgMjkuNDIwNSAyMS44OTExWk0xOS45ODggMzIuMDUxMUwxOS45ODczIDMyLjA1NDNDMTkuOTg3NyAzMi4wNDAyIDE5Ljk4OCAzMi4wMjYxIDE5Ljk4OCAzMi4wMTJWMzIuMDUxMVpNMjkuNTQ4IDI4LjI4MTlMMjkuNTUxMyAyOC4yNzcyTDI5LjQ5NTEgMjguMjUwMkwyOS41NDggMjguMjgxOVpNMjMuODA5OSAxNC45MzUxTDIzLjc4MTEgMTQuOTA4MUwyMy43OTM1IDE0LjkzNjNMMjMuODA5OSAxNC45MzUxWk0zMC40ODIzIDI2LjcxODNMMzAuNDg1NiAyNi43MjAyQzMwLjQ1NjMgMjYuNzY0NyAzMC40MjY5IDI2LjgwOTEgMzAuMzk3MyAyNi44NTMzTDMwLjQ4MjMgMjYuNzE4M1pNMzMuMjQwNiAyMC44MTMyTDMzLjI0MjMgMjAuODE0NEwzMy4yMTE4IDIwLjkxODVMMzMuMjQwNiAyMC44MTMyWiIgY2xpcC1ydWxlPSJldmVub2RkIiBmaWxsLXJ1bGU9ImV2ZW5vZGQiLz4mI3hhOzxwYXRoIGZpbGw9InVybCgjcGFpbnQxM19yYWRpYWxfMjYyMl8zOTEwKSIgZD0iTTE0LjU3ODEgMTguMTc3MUwxNC42MDU1IDE4LjE1MTVDMTQuOTQ4MSAxNy43MDc2IDE1LjM2NjkgMTcuMzE5OSAxNS44NDQ4IDE3LjAwNDJDMTYuMzM4IDE2LjY3NiAxNi44Nzc5IDE2LjQxNDMgMTcuNDQ4OCAxNi4yMjY4QzE3LjQxMTMgMTYuMzg0NyAxNy4zNzM5IDE2LjU1MjEgMTcuMzM2NCAxNi43Mjc1QzE3LjI5NzUgMTYuOTA5NyAxNy4yNzg3IDE3LjA5NTEgMTcuMjgwMiAxNy4yODA5TDE3LjE5NTIgMTcuMzA3OUMxNi43MzI5IDE3LjQxMSAxNi4yNzczIDE3LjUzODUgMTUuODMwNCAxNy42ODk5QzE1LjQwMTEgMTcuODM0OCAxNC45ODI3IDE4LjAwNjYgMTQuNTc4MSAxOC4yMDQxVjE4LjE3NzFaIi8+JiN4YTs8L2c+JiN4YTs8ZGVmcz4mI3hhOzxsaW5lYXJHcmFkaWVudCBncmFkaWVudFVuaXRzPSJ1c2VyU3BhY2VPblVzZSIgeTI9IjQ0LjI3OTIiIHgyPSI0MS41NjQ1IiB5MT0iNi44NDc3NSIgeDE9IjQuODUyODciIGlkPSJwYWludDBfbGluZWFyXzI2MjJfMzkxMCI+JiN4YTs8c3RvcCBzdG9wLWNvbG9yPSJ3aGl0ZSIvPiYjeGE7PHN0b3Agc3RvcC1jb2xvcj0iI0VBRUNFRSIgb2Zmc2V0PSIxIi8+JiN4YTs8L2xpbmVhckdyYWRpZW50PiYjeGE7PHJhZGlhbEdyYWRpZW50IGdyYWRpZW50VHJhbnNmb3JtPSJ0cmFuc2xhdGUoMTYuMDQ2OSAxNC41ODcxKSByb3RhdGUoNDUpIHNjYWxlKDI2Ljc0MDMgMzIuNDUzMSkiIGdyYWRpZW50VW5pdHM9InVzZXJTcGFjZU9uVXNlIiByPSIxIiBjeT0iMCIgY3g9IjAiIGlkPSJwYWludDFfcmFkaWFsXzI2MjJfMzkxMCI+JiN4YTs8c3RvcCBzdG9wLWNvbG9yPSIjMDBCQkZGIi8+JiN4YTs8c3RvcCBzdG9wLWNvbG9yPSIjMDA4QkZGIiBvZmZzZXQ9IjEiLz4mI3hhOzwvcmFkaWFsR3JhZGllbnQ+JiN4YTs8cmFkaWFsR3JhZGllbnQgZ3JhZGllbnRUcmFuc2Zvcm09InRyYW5zbGF0ZSgxNi4wNDY5IDE0LjU4NzEpIHJvdGF0ZSg0NSkgc2NhbGUoMjYuNzQwMyAzMi40NTMxKSIgZ3JhZGllbnRVbml0cz0idXNlclNwYWNlT25Vc2UiIHI9IjEiIGN5PSIwIiBjeD0iMCIgaWQ9InBhaW50Ml9yYWRpYWxfMjYyMl8zOTEwIj4mI3hhOzxzdG9wIHN0b3AtY29sb3I9IiMwMEJCRkYiLz4mI3hhOzxzdG9wIHN0b3AtY29sb3I9IiMwMDhCRkYiIG9mZnNldD0iMSIvPiYjeGE7PC9yYWRpYWxHcmFkaWVudD4mI3hhOzxyYWRpYWxHcmFkaWVudCBncmFkaWVudFRyYW5zZm9ybT0idHJhbnNsYXRlKDE2LjA0NjkgMTQuNTg3MSkgcm90YXRlKDQ1KSBzY2FsZSgyNi43NDAzIDMyLjQ1MzEpIiBncmFkaWVudFVuaXRzPSJ1c2VyU3BhY2VPblVzZSIgcj0iMSIgY3k9IjAiIGN4PSIwIiBpZD0icGFpbnQzX3JhZGlhbF8yNjIyXzM5MTAiPiYjeGE7PHN0b3Agc3RvcC1jb2xvcj0iIzAwQkJGRiIvPiYjeGE7PHN0b3Agc3RvcC1jb2xvcj0iIzAwOEJGRiIgb2Zmc2V0PSIxIi8+JiN4YTs8L3JhZGlhbEdyYWRpZW50PiYjeGE7PHJhZGlhbEdyYWRpZW50IGdyYWRpZW50VHJhbnNmb3JtPSJ0cmFuc2xhdGUoMTYuMDQ2OSAxNC41ODcxKSByb3RhdGUoNDUpIHNjYWxlKDI2Ljc0MDMgMzIuNDUzMSkiIGdyYWRpZW50VW5pdHM9InVzZXJTcGFjZU9uVXNlIiByPSIxIiBjeT0iMCIgY3g9IjAiIGlkPSJwYWludDRfcmFkaWFsXzI2MjJfMzkxMCI+JiN4YTs8c3RvcCBzdG9wLWNvbG9yPSIjMDBCQkZGIi8+JiN4YTs8c3RvcCBzdG9wLWNvbG9yPSIjMDA4QkZGIiBvZmZzZXQ9IjEiLz4mI3hhOzwvcmFkaWFsR3JhZGllbnQ+JiN4YTs8cmFkaWFsR3JhZGllbnQgZ3JhZGllbnRUcmFuc2Zvcm09InRyYW5zbGF0ZSgxNS45MzcgMTQuNDk5Mykgcm90YXRlKDQ1LjMxODEpIHNjYWxlKDI2LjU4NDMgNTAuMjI5MSkiIGdyYWRpZW50VW5pdHM9InVzZXJTcGFjZU9uVXNlIiByPSIxIiBjeT0iMCIgY3g9IjAiIGlkPSJwYWludDVfcmFkaWFsXzI2MjJfMzkxMCI+JiN4YTs8c3RvcCBzdG9wLWNvbG9yPSIjMDE5NUZGIi8+JiN4YTs8c3RvcCBzdG9wLWNvbG9yPSIjMTE0N0U5IiBvZmZzZXQ9IjEiLz4mI3hhOzwvcmFkaWFsR3JhZGllbnQ+JiN4YTs8cmFkaWFsR3JhZGllbnQgZ3JhZGllbnRUcmFuc2Zvcm09InRyYW5zbGF0ZSgxNS45MzcgMTQuNDk5Mykgcm90YXRlKDQ1LjMxODEpIHNjYWxlKDI2LjU4NDMgNTAuMjI5MSkiIGdyYWRpZW50VW5pdHM9InVzZXJTcGFjZU9uVXNlIiByPSIxIiBjeT0iMCIgY3g9IjAiIGlkPSJwYWludDZfcmFkaWFsXzI2MjJfMzkxMCI+JiN4YTs8c3RvcCBzdG9wLWNvbG9yPSIjMDE5NUZGIi8+JiN4YTs8c3RvcCBzdG9wLWNvbG9yPSIjMTE0N0U5IiBvZmZzZXQ9IjEiLz4mI3hhOzwvcmFkaWFsR3JhZGllbnQ+JiN4YTs8cmFkaWFsR3JhZGllbnQgZ3JhZGllbnRUcmFuc2Zvcm09InRyYW5zbGF0ZSgxNS45MzcgMTQuNDk5Mykgcm90YXRlKDQ1LjMxODEpIHNjYWxlKDI2LjU4NDMgNTAuMjI5MSkiIGdyYWRpZW50VW5pdHM9InVzZXJTcGFjZU9uVXNlIiByPSIxIiBjeT0iMCIgY3g9IjAiIGlkPSJwYWludDdfcmFkaWFsXzI2MjJfMzkxMCI+JiN4YTs8c3RvcCBzdG9wLWNvbG9yPSIjMDE5NUZGIi8+JiN4YTs8c3RvcCBzdG9wLWNvbG9yPSIjMTE0N0U5IiBvZmZzZXQ9IjEiLz4mI3hhOzwvcmFkaWFsR3JhZGllbnQ+JiN4YTs8cmFkaWFsR3JhZGllbnQgZ3JhZGllbnRUcmFuc2Zvcm09InRyYW5zbGF0ZSgxNS45MzA5IDE0LjU5NjYpIHJvdGF0ZSg0NSkgc2NhbGUoMjYuNTk3OCAyNC4yMzc2KSIgZ3JhZGllbnRVbml0cz0idXNlclNwYWNlT25Vc2UiIHI9IjEiIGN5PSIwIiBjeD0iMCIgaWQ9InBhaW50OF9yYWRpYWxfMjYyMl8zOTEwIj4mI3hhOzxzdG9wIHN0b3AtY29sb3I9IiMxMzQ4RkYiLz4mI3hhOzxzdG9wIHN0b3AtY29sb3I9IiMwNjIzOEQiIG9mZnNldD0iMSIvPiYjeGE7PC9yYWRpYWxHcmFkaWVudD4mI3hhOzxyYWRpYWxHcmFkaWVudCBncmFkaWVudFRyYW5zZm9ybT0idHJhbnNsYXRlKDE1LjkzNyAxNC40OTkzKSByb3RhdGUoNDUuMzE4MSkgc2NhbGUoMjYuNTg0MyA1MC4yMjkxKSIgZ3JhZGllbnRVbml0cz0idXNlclNwYWNlT25Vc2UiIHI9IjEiIGN5PSIwIiBjeD0iMCIgaWQ9InBhaW50OV9yYWRpYWxfMjYyMl8zOTEwIj4mI3hhOzxzdG9wIHN0b3AtY29sb3I9IiMwMTk1RkYiLz4mI3hhOzxzdG9wIHN0b3AtY29sb3I9IiMxMTQ3RTkiIG9mZnNldD0iMSIvPiYjeGE7PC9yYWRpYWxHcmFkaWVudD4mI3hhOzxyYWRpYWxHcmFkaWVudCBncmFkaWVudFRyYW5zZm9ybT0idHJhbnNsYXRlKDE1LjkzMDkgMTQuNTk2Nikgcm90YXRlKDQ1KSBzY2FsZSgyNi41OTc4IDI0LjIzNzYpIiBncmFkaWVudFVuaXRzPSJ1c2VyU3BhY2VPblVzZSIgcj0iMSIgY3k9IjAiIGN4PSIwIiBpZD0icGFpbnQxMF9yYWRpYWxfMjYyMl8zOTEwIj4mI3hhOzxzdG9wIHN0b3AtY29sb3I9IiMxMzQ4RkYiLz4mI3hhOzxzdG9wIHN0b3AtY29sb3I9IiMwNjIzOEQiIG9mZnNldD0iMSIvPiYjeGE7PC9yYWRpYWxHcmFkaWVudD4mI3hhOzxyYWRpYWxHcmFkaWVudCBncmFkaWVudFRyYW5zZm9ybT0idHJhbnNsYXRlKDE1LjkzMDkgMTQuNTk2Nikgcm90YXRlKDQ1KSBzY2FsZSgyNi41OTc4IDI0LjIzNzYpIiBncmFkaWVudFVuaXRzPSJ1c2VyU3BhY2VPblVzZSIgcj0iMSIgY3k9IjAiIGN4PSIwIiBpZD0icGFpbnQxMV9yYWRpYWxfMjYyMl8zOTEwIj4mI3hhOzxzdG9wIHN0b3AtY29sb3I9IiMxMzQ4RkYiLz4mI3hhOzxzdG9wIHN0b3AtY29sb3I9IiMwNjIzOEQiIG9mZnNldD0iMSIvPiYjeGE7PC9yYWRpYWxHcmFkaWVudD4mI3hhOzxyYWRpYWxHcmFkaWVudCBncmFkaWVudFRyYW5zZm9ybT0idHJhbnNsYXRlKDE1LjkzMDkgMTQuNTk2Nikgcm90YXRlKDQ1KSBzY2FsZSgyNi41OTc4IDI0LjIzNzYpIiBncmFkaWVudFVuaXRzPSJ1c2VyU3BhY2VPblVzZSIgcj0iMSIgY3k9IjAiIGN4PSIwIiBpZD0icGFpbnQxMl9yYWRpYWxfMjYyMl8zOTEwIj4mI3hhOzxzdG9wIHN0b3AtY29sb3I9IiMxMzQ4RkYiLz4mI3hhOzxzdG9wIHN0b3AtY29sb3I9IiMwNjIzOEQiIG9mZnNldD0iMSIvPiYjeGE7PC9yYWRpYWxHcmFkaWVudD4mI3hhOzxyYWRpYWxHcmFkaWVudCBncmFkaWVudFRyYW5zZm9ybT0idHJhbnNsYXRlKDE1LjkzMDkgMTQuNTk2Nikgcm90YXRlKDQ1KSBzY2FsZSgyNi41OTc4IDI0LjIzNzYpIiBncmFkaWVudFVuaXRzPSJ1c2VyU3BhY2VPblVzZSIgcj0iMSIgY3k9IjAiIGN4PSIwIiBpZD0icGFpbnQxM19yYWRpYWxfMjYyMl8zOTEwIj4mI3hhOzxzdG9wIHN0b3AtY29sb3I9IiMxMzQ4RkYiLz4mI3hhOzxzdG9wIHN0b3AtY29sb3I9IiMwNjIzOEQiIG9mZnNldD0iMSIvPiYjeGE7PC9yYWRpYWxHcmFkaWVudD4mI3hhOzxjbGlwUGF0aCBpZD0iY2xpcDBfMjYyMl8zOTEwIj4mI3hhOzxyZWN0IHRyYW5zZm9ybT0idHJhbnNsYXRlKDAuNSAwLjAzNDkxMjEpIiBmaWxsPSJ3aGl0ZSIgaGVpZ2h0PSI0OCIgd2lkdGg9IjQ4Ii8+JiN4YTs8L2NsaXBQYXRoPiYjeGE7PC9kZWZzPiYjeGE7PC9zdmc+;points=[[0,0,0,0,0],[0,0.25,0,0,0],[0,0.5,0,0,0],[0,0.75,0,0,0],[0.25,0,0,0,0],[0.5,0,0,0,0],[0.75,0,0,0,0],[1,0,0,0,0],[1,0.25,0,0,0],[1,0.5,0,0,0],[1,0.75,0,0,0]];" vertex="1" parent="TD24z0pvAZjdWzv6N8VS-20">
          <mxGeometry x="4" width="33" height="33" as="geometry" />
        </mxCell>
        <mxCell id="TD24z0pvAZjdWzv6N8VS-23" value="" style="group" vertex="1" connectable="0" parent="1">
          <mxGeometry x="301" y="365" width="214.68000000000006" height="34.06" as="geometry" />
        </mxCell>
        <mxCell id="TD24z0pvAZjdWzv6N8VS-24" value="&lt;b style=&quot;font-size: 14px;&quot;&gt;SAP Analytics Cloud&lt;/b&gt;" style="text;html=1;strokeColor=none;fillColor=none;align=center;verticalAlign=middle;whiteSpace=wrap;rounded=0;fontSize=14;fontColor=#000000;opacity=0;container=0;" vertex="1" parent="TD24z0pvAZjdWzv6N8VS-23">
          <mxGeometry x="21.06000000000006" y="2.0299999999999727" width="193.62" height="30" as="geometry" />
        </mxCell>
        <mxCell id="TD24z0pvAZjdWzv6N8VS-25" value="" style="shape=image;verticalLabelPosition=bottom;labelBackgroundColor=default;verticalAlign=top;aspect=fixed;imageAspect=0;image=data:image/svg+xml,PHN2ZyB4bWxucz0iaHR0cDovL3d3dy53My5vcmcvMjAwMC9zdmciIGZpbGw9Im5vbmUiIHZpZXdCb3g9IjAgMCA0OCA0OCIgaGVpZ2h0PSI0OCIgd2lkdGg9IjQ4Ij4mI3hhOzxnIGNsaXAtcGF0aD0idXJsKCNjbGlwMF8zMTY5Xzk0MDQpIj4mI3hhOzxjaXJjbGUgc3Ryb2tlLXdpZHRoPSIwLjg1NzE0MiIgc3Ryb2tlPSIjRDVEQUREIiBmaWxsPSJ1cmwoI3BhaW50MF9saW5lYXJfMzE2OV85NDA0KSIgcj0iMjMuNTcxNCIgY3k9IjI0LjI0OSIgY3g9IjI0Ii8+JiN4YTs8ZyBjbGlwLXBhdGg9InVybCgjY2xpcDFfMzE2OV85NDA0KSI+JiN4YTs8cGF0aCBzdHJva2Utd2lkdGg9IjIuNyIgc3Ryb2tlPSJ1cmwoI3BhaW50MV9saW5lYXJfMzE2OV85NDA0KSIgZD0iTTE5LjMxMjEgMTIuNzkxOEMyMC45NjI2IDEyLjEwMTUgMjIuNzM5MSAxMS43ODY3IDI0LjUxNDIgMTEuODYxOUMyNC41MzcgMTEuODYyOCAyNC41NDc2IDExLjg2NzcgMjQuNTUzOSAxMS44NzExQzI0LjU2MjEgMTEuODc1NiAyNC41NzYyIDExLjg4NTggMjQuNTkxOSAxMS45MDY5QzI0LjYyNTMgMTEuOTUxOSAyNC42NTI4IDEyLjAzMDggMjQuNjM2MyAxMi4xMjg2TDIyLjg5NzUgMjIuNDIyM0MyMi42NTc4IDIzLjg0MTcgMjMuNDQ3MiAyNS4yMzQ0IDI0Ljc4ODEgMjUuNzU3OEwzNC41MTMgMjkuNTUzOEMzNC42MDU0IDI5LjU4OTkgMzQuNjU4OSAyOS42NTQxIDM0LjY4MDQgMjkuNzA1OEMzNC42OTA1IDI5LjczMDEgMzQuNjkyIDI5Ljc0NzQgMzQuNjkxNiAyOS43NTY4QzM0LjY5MTQgMjkuNzY0IDM0LjY5MDEgMjkuNzc1NiAzNC42NzkyIDI5Ljc5NTZDMzMuODMxOCAzMS4zNTcyIDMyLjY0OTEgMzIuNzE5NyAzMS4yMDkxIDMzLjc4MTFDMjkuMzU5OSAzNS4xNDQxIDI3LjE2MjMgMzUuOTU1IDI0Ljg3MTEgMzYuMTE5N0MyMi41Nzk4IDM2LjI4NDQgMjAuMjg4OCAzNS43OTYxIDE4LjI2MzcgMzQuNzExNkMxNi4yMzg3IDMzLjYyNzEgMTQuNTYyNiAzMS45OTA3IDEzLjQyOTkgMjkuOTkyMkMxMi4yOTcxIDI3Ljk5MzcgMTEuNzU0MSAyNS43MTUxIDExLjg2MzkgMjMuNDIwNUMxMS45NzM2IDIxLjEyNiAxMi43MzE2IDE4LjkwOTYgMTQuMDQ5OSAxNy4wMjgzQzE1LjM2ODIgMTUuMTQ3MSAxNy4xOTI4IDEzLjY3ODEgMTkuMzEyMSAxMi43OTE4WiIvPiYjeGE7PHBhdGggZmlsbD0idXJsKCNwYWludDJfbGluZWFyXzMxNjlfOTQwNCkiIGQ9Ik0zNS4zODc4IDI1LjM4MjlDMzYuMzc3OCAyNS43NjQ0IDM3LjQ3NjQgMjUuMTQ0OSAzNy40OTc2IDI0LjA4NDFDMzcuNTA1NiAyMy42ODA3IDM3LjQ5NSAyMy4yNzY0IDM3LjQ2NTYgMjIuODcyM0MzNy4zMjIgMjAuODk5IDM2LjczMzIgMTguOTgyIDM1Ljc0MjEgMTcuMjYxM0MzNC43NTEgMTUuNTQwNSAzMy4zODI3IDE0LjA1OTIgMzEuNzM2OCAxMi45MjU0QzMxLjM5NjYgMTIuNjkxMSAzMS4wNDYzIDEyLjQ3MjggMzAuNjg3MiAxMi4yNzExQzI5Ljc2MTUgMTEuNzUxMiAyOC42NjY4IDEyLjM3OTIgMjguNDg5IDEzLjQyNTlMMjcuMjM3OCAyMC43OTIzQzI3LjEwMzQgMjEuNTgzOSAyNy41NDU0IDIyLjM2MDcgMjguMjk0NyAyMi42NDk1TDM1LjM4NzggMjUuMzgyOVoiIGNsaXAtcnVsZT0iZXZlbm9kZCIgZmlsbC1ydWxlPSJldmVub2RkIi8+JiN4YTs8L2c+JiN4YTs8L2c+JiN4YTs8ZGVmcz4mI3hhOzxsaW5lYXJHcmFkaWVudCBncmFkaWVudFVuaXRzPSJ1c2VyU3BhY2VPblVzZSIgeTI9IjQ0LjQ5MzMiIHgyPSI0MS4wNjQ0IiB5MT0iNy4wNjE4NiIgeDE9IjQuMzUyODYiIGlkPSJwYWludDBfbGluZWFyXzMxNjlfOTQwNCI+JiN4YTs8c3RvcCBzdG9wLWNvbG9yPSJ3aGl0ZSIvPiYjeGE7PHN0b3Agc3RvcC1jb2xvcj0iI0VBRUNFRSIgb2Zmc2V0PSIxIi8+JiN4YTs8L2xpbmVhckdyYWRpZW50PiYjeGE7PGxpbmVhckdyYWRpZW50IGdyYWRpZW50VW5pdHM9InVzZXJTcGFjZU9uVXNlIiB5Mj0iMzIuNDAxOSIgeDI9IjMzLjIwNTMiIHkxPSIxNC41Mzg3IiB4MT0iMTQuMzI4OCIgaWQ9InBhaW50MV9saW5lYXJfMzE2OV85NDA0Ij4mI3hhOzxzdG9wIHN0b3AtY29sb3I9IiMwMTk1RkYiLz4mI3hhOzxzdG9wIHN0b3AtY29sb3I9IiMxMTQ3RTkiIG9mZnNldD0iMC45OTEwMjgiLz4mI3hhOzwvbGluZWFyR3JhZGllbnQ+JiN4YTs8bGluZWFyR3JhZGllbnQgZ3JhZGllbnRVbml0cz0idXNlclNwYWNlT25Vc2UiIHkyPSIyMS4wNDg1IiB4Mj0iMzcuODA5NyIgeTE9IjE0LjA1OCIgeDE9IjI4LjczNDYiIGlkPSJwYWludDJfbGluZWFyXzMxNjlfOTQwNCI+JiN4YTs8c3RvcCBzdG9wLWNvbG9yPSIjMTM0OEZGIi8+JiN4YTs8c3RvcCBzdG9wLWNvbG9yPSIjMDYyMzhEIiBvZmZzZXQ9IjEiLz4mI3hhOzwvbGluZWFyR3JhZGllbnQ+JiN4YTs8Y2xpcFBhdGggaWQ9ImNsaXAwXzMxNjlfOTQwNCI+JiN4YTs8cmVjdCB0cmFuc2Zvcm09InRyYW5zbGF0ZSgwIDAuMDAwOTc2NTYyKSIgZmlsbD0id2hpdGUiIGhlaWdodD0iNDgiIHdpZHRoPSI0OCIvPiYjeGE7PC9jbGlwUGF0aD4mI3hhOzxjbGlwUGF0aCBpZD0iY2xpcDFfMzE2OV85NDA0Ij4mI3hhOzxyZWN0IHRyYW5zZm9ybT0idHJhbnNsYXRlKDEwLjUgMTAuNTAxKSIgZmlsbD0id2hpdGUiIGhlaWdodD0iMjciIHdpZHRoPSIyNyIvPiYjeGE7PC9jbGlwUGF0aD4mI3hhOzwvZGVmcz4mI3hhOzwvc3ZnPg==;" vertex="1" parent="TD24z0pvAZjdWzv6N8VS-23">
          <mxGeometry width="34.06" height="34.06" as="geometry" />
        </mxCell>
        <mxCell id="TD24z0pvAZjdWzv6N8VS-26" value="" style="group;strokeColor=none;" vertex="1" connectable="0" parent="1">
          <mxGeometry x="1184" y="748" width="160" height="160" as="geometry" />
        </mxCell>
        <mxCell id="TD24z0pvAZjdWzv6N8VS-27" value="Data Product Product&lt;div&gt;(Cash Flow)&lt;br&gt;&lt;div&gt;&lt;br&gt;&lt;/div&gt;&lt;div&gt;&lt;br&gt;&lt;/div&gt;&lt;div&gt;&lt;br&gt;&lt;/div&gt;&lt;div&gt;&lt;br&gt;&lt;/div&gt;&lt;div&gt;&lt;br&gt;&lt;/div&gt;&lt;div&gt;&lt;br&gt;&lt;/div&gt;&lt;div&gt;&lt;br&gt;&lt;/div&gt;&lt;div&gt;&lt;br&gt;&lt;/div&gt;&lt;/div&gt;" style="rounded=1;whiteSpace=wrap;html=1;strokeColor=#0070F2;fillColor=#EBF8FF;arcSize=24;absoluteArcSize=1;imageWidth=64;imageHeight=64;strokeWidth=1.5;dashed=1;dashPattern=1 2;" vertex="1" parent="TD24z0pvAZjdWzv6N8VS-26">
          <mxGeometry width="160" height="160" as="geometry" />
        </mxCell>
        <mxCell id="TD24z0pvAZjdWzv6N8VS-28" value="Views" style="rounded=1;whiteSpace=wrap;html=1;strokeColor=#0070F2;strokeWidth=1.5;arcSize=16;fillColor=#ffffff;perimeterSpacing=0;absoluteArcSize=1;" vertex="1" parent="TD24z0pvAZjdWzv6N8VS-26">
          <mxGeometry x="24.5" y="91" width="111" height="20" as="geometry" />
        </mxCell>
        <mxCell id="TD24z0pvAZjdWzv6N8VS-29" value="Analytics Model" style="rounded=1;whiteSpace=wrap;html=1;strokeColor=#0070F2;strokeWidth=1.5;arcSize=16;fillColor=#ffffff;perimeterSpacing=0;absoluteArcSize=1;" vertex="1" parent="TD24z0pvAZjdWzv6N8VS-26">
          <mxGeometry x="24.5" y="56.5" width="111" height="20" as="geometry" />
        </mxCell>
        <mxCell id="TD24z0pvAZjdWzv6N8VS-30" value="Tables" style="rounded=1;whiteSpace=wrap;html=1;strokeColor=#0070F2;strokeWidth=1.5;arcSize=16;fillColor=#ffffff;perimeterSpacing=0;absoluteArcSize=1;" vertex="1" parent="TD24z0pvAZjdWzv6N8VS-26">
          <mxGeometry x="24.5" y="124.5" width="111" height="20" as="geometry" />
        </mxCell>
        <mxCell id="TD24z0pvAZjdWzv6N8VS-33" value="&lt;font color=&quot;#1d2d3e&quot; size=&quot;1&quot; face=&quot;arial&quot;&gt;&lt;b style=&quot;font-size: 14px;&quot;&gt;Data Package&lt;/b&gt;&lt;/font&gt;&lt;div&gt;&lt;font color=&quot;#1d2d3e&quot; face=&quot;arial&quot;&gt;&lt;span style=&quot;font-size: 14px;&quot;&gt;&lt;b&gt;SAP S/4HANA Financial Operations&lt;/b&gt;&lt;/span&gt;&lt;/font&gt;&lt;/div&gt;" style="text;html=1;align=left;verticalAlign=middle;resizable=0;points=[];autosize=1;strokeColor=none;fillColor=none;fontSize=12;fontColor=default;fontFamily=Helvetica;" vertex="1" parent="1">
          <mxGeometry x="1214" y="500.52" width="254" height="46" as="geometry" />
        </mxCell>
        <mxCell id="TD24z0pvAZjdWzv6N8VS-34" value="" style="group;strokeColor=none;" vertex="1" connectable="0" parent="1">
          <mxGeometry x="1367" y="748" width="160" height="160" as="geometry" />
        </mxCell>
        <mxCell id="TD24z0pvAZjdWzv6N8VS-35" value="Data Product Product&lt;div&gt;(House Bank)&lt;br&gt;&lt;div&gt;&lt;br&gt;&lt;/div&gt;&lt;div&gt;&lt;br&gt;&lt;/div&gt;&lt;div&gt;&lt;br&gt;&lt;/div&gt;&lt;div&gt;&lt;br&gt;&lt;/div&gt;&lt;div&gt;&lt;br&gt;&lt;/div&gt;&lt;div&gt;&lt;br&gt;&lt;/div&gt;&lt;div&gt;&lt;br&gt;&lt;/div&gt;&lt;div&gt;&lt;br&gt;&lt;/div&gt;&lt;/div&gt;" style="rounded=1;whiteSpace=wrap;html=1;strokeColor=#0070F2;fillColor=#EBF8FF;arcSize=24;absoluteArcSize=1;imageWidth=64;imageHeight=64;strokeWidth=1.5;dashed=1;dashPattern=1 2;" vertex="1" parent="TD24z0pvAZjdWzv6N8VS-34">
          <mxGeometry width="160" height="160" as="geometry" />
        </mxCell>
        <mxCell id="TD24z0pvAZjdWzv6N8VS-36" value="Views" style="rounded=1;whiteSpace=wrap;html=1;strokeColor=#0070F2;strokeWidth=1.5;arcSize=16;fillColor=#ffffff;perimeterSpacing=0;absoluteArcSize=1;" vertex="1" parent="TD24z0pvAZjdWzv6N8VS-34">
          <mxGeometry x="24.5" y="91" width="111" height="20" as="geometry" />
        </mxCell>
        <mxCell id="TD24z0pvAZjdWzv6N8VS-37" value="Analytics Model" style="rounded=1;whiteSpace=wrap;html=1;strokeColor=#0070F2;strokeWidth=1.5;arcSize=16;fillColor=#ffffff;perimeterSpacing=0;absoluteArcSize=1;" vertex="1" parent="TD24z0pvAZjdWzv6N8VS-34">
          <mxGeometry x="24.5" y="56.5" width="111" height="20" as="geometry" />
        </mxCell>
        <mxCell id="TD24z0pvAZjdWzv6N8VS-38" value="Tables" style="rounded=1;whiteSpace=wrap;html=1;strokeColor=#0070F2;strokeWidth=1.5;arcSize=16;fillColor=#ffffff;perimeterSpacing=0;absoluteArcSize=1;" vertex="1" parent="TD24z0pvAZjdWzv6N8VS-34">
          <mxGeometry x="24.5" y="124.5" width="111" height="20" as="geometry" />
        </mxCell>
        <mxCell id="TD24z0pvAZjdWzv6N8VS-39" value="" style="group" vertex="1" connectable="0" parent="1">
          <mxGeometry x="1274" y="560" width="160" height="160" as="geometry" />
        </mxCell>
        <mxCell id="TD24z0pvAZjdWzv6N8VS-40" value="Insight App&lt;br&gt;&lt;div&gt;(Actual / Forecast Cash Flow of a Compamy)&lt;div&gt;&lt;br&gt;&lt;/div&gt;&lt;div&gt;&lt;br&gt;&lt;/div&gt;&lt;div&gt;&lt;br&gt;&lt;/div&gt;&lt;div&gt;&lt;br&gt;&lt;/div&gt;&lt;div&gt;&lt;br&gt;&lt;/div&gt;&lt;div&gt;&lt;br&gt;&lt;/div&gt;&lt;div&gt;&lt;br&gt;&lt;/div&gt;&lt;/div&gt;" style="rounded=1;whiteSpace=wrap;html=1;strokeColor=#0070F2;fillColor=#EBF8FF;arcSize=24;absoluteArcSize=1;imageWidth=64;imageHeight=64;strokeWidth=1.5;dashed=1;dashPattern=1 2;" vertex="1" parent="TD24z0pvAZjdWzv6N8VS-39">
          <mxGeometry width="160" height="160" as="geometry" />
        </mxCell>
        <mxCell id="TD24z0pvAZjdWzv6N8VS-41" value="SAC Story" style="rounded=1;whiteSpace=wrap;html=1;strokeColor=#0070F2;strokeWidth=1.5;arcSize=16;fillColor=#ffffff;perimeterSpacing=0;absoluteArcSize=1;" vertex="1" parent="TD24z0pvAZjdWzv6N8VS-39">
          <mxGeometry x="24.5" y="76" width="111" height="20" as="geometry" />
        </mxCell>
        <mxCell id="TD24z0pvAZjdWzv6N8VS-42" value="DSP Analytic Model" style="rounded=1;whiteSpace=wrap;html=1;strokeColor=#0070F2;strokeWidth=1.5;arcSize=16;fillColor=#ffffff;perimeterSpacing=0;absoluteArcSize=1;" vertex="1" parent="TD24z0pvAZjdWzv6N8VS-39">
          <mxGeometry x="25" y="121" width="111" height="20" as="geometry" />
        </mxCell>
        <mxCell id="TD24z0pvAZjdWzv6N8VS-43" value="&lt;b&gt;SAC CORE Capabilities&lt;/b&gt;&lt;div&gt;Business Intelligence / Planning / JustAsk / Compass&lt;/div&gt;" style="rounded=1;whiteSpace=wrap;html=1;strokeColor=#188918;fillColor=#f5fae5;arcSize=24;absoluteArcSize=1;imageWidth=64;imageHeight=64;strokeWidth=1;" vertex="1" parent="1">
          <mxGeometry x="312" y="422" width="442" height="50" as="geometry" />
        </mxCell>
        <mxCell id="TD24z0pvAZjdWzv6N8VS-44" value="" style="group" vertex="1" connectable="0" parent="1">
          <mxGeometry x="788" y="375" width="291" height="96" as="geometry" />
        </mxCell>
        <mxCell id="TD24z0pvAZjdWzv6N8VS-45" value="" style="rounded=1;whiteSpace=wrap;html=1;strokeColor=#0070F2;fillColor=#ffffff;arcSize=24;absoluteArcSize=1;imageWidth=64;imageHeight=64;strokeWidth=1.5;dashed=1;dashPattern=8 8;" vertex="1" parent="TD24z0pvAZjdWzv6N8VS-44">
          <mxGeometry width="291" height="96" as="geometry" />
        </mxCell>
        <mxCell id="TD24z0pvAZjdWzv6N8VS-46" value="&lt;font face=&quot;arial&quot; color=&quot;#1d2d3e&quot;&gt;&lt;span style=&quot;font-size: 14px;&quot;&gt;&lt;b&gt;Folder: SAP Data Product&lt;/b&gt;&lt;/span&gt;&lt;/font&gt;" style="text;html=1;align=left;verticalAlign=middle;resizable=0;points=[];autosize=1;strokeColor=none;fillColor=none;fontSize=12;fontColor=default;fontFamily=Helvetica;" vertex="1" parent="TD24z0pvAZjdWzv6N8VS-44">
          <mxGeometry x="9" y="10" width="189" height="29" as="geometry" />
        </mxCell>
        <mxCell id="TD24z0pvAZjdWzv6N8VS-47" value="Insight Apps" style="rounded=1;whiteSpace=wrap;html=1;strokeColor=#0070F2;strokeWidth=1.5;arcSize=16;fillColor=#ffffff;perimeterSpacing=0;absoluteArcSize=1;" vertex="1" parent="TD24z0pvAZjdWzv6N8VS-44">
          <mxGeometry x="23" y="51" width="111" height="20" as="geometry" />
        </mxCell>
        <mxCell id="TD24z0pvAZjdWzv6N8VS-48" value="Insight Apps" style="rounded=1;whiteSpace=wrap;html=1;strokeColor=#0070F2;strokeWidth=1.5;arcSize=16;fillColor=#ffffff;perimeterSpacing=0;absoluteArcSize=1;" vertex="1" parent="TD24z0pvAZjdWzv6N8VS-44">
          <mxGeometry x="165" y="51" width="111" height="20" as="geometry" />
        </mxCell>
        <mxCell id="TD24z0pvAZjdWzv6N8VS-49" value="" style="group" vertex="1" connectable="0" parent="1">
          <mxGeometry x="727" y="551" width="358" height="281" as="geometry" />
        </mxCell>
        <mxCell id="TD24z0pvAZjdWzv6N8VS-50" value="" style="rounded=1;whiteSpace=wrap;html=1;strokeColor=#0070F2;fillColor=#ffffff;arcSize=24;absoluteArcSize=1;imageWidth=64;imageHeight=64;strokeWidth=1.5;dashed=1;dashPattern=8 8;" vertex="1" parent="TD24z0pvAZjdWzv6N8VS-49">
          <mxGeometry y="51" width="358" height="230" as="geometry" />
        </mxCell>
        <mxCell id="TD24z0pvAZjdWzv6N8VS-51" value="&lt;font color=&quot;#1d2d3e&quot; size=&quot;1&quot; face=&quot;arial&quot;&gt;&lt;b style=&quot;font-size: 14px;&quot;&gt;SAP Space (Data Product)&lt;/b&gt;&lt;/font&gt;" style="text;html=1;align=left;verticalAlign=middle;resizable=0;points=[];autosize=1;strokeColor=none;fillColor=none;fontSize=12;fontColor=default;fontFamily=Helvetica;" vertex="1" parent="TD24z0pvAZjdWzv6N8VS-49">
          <mxGeometry x="14" y="54" width="192" height="29" as="geometry" />
        </mxCell>
        <mxCell id="TD24z0pvAZjdWzv6N8VS-52" value="" style="group" vertex="1" connectable="0" parent="TD24z0pvAZjdWzv6N8VS-49">
          <mxGeometry x="12" y="54" width="337" height="213" as="geometry" />
        </mxCell>
        <mxCell id="TD24z0pvAZjdWzv6N8VS-53" value="" style="group;strokeColor=none;" vertex="1" connectable="0" parent="TD24z0pvAZjdWzv6N8VS-52">
          <mxGeometry x="2.6299999999999955" y="51" width="160" height="160" as="geometry" />
        </mxCell>
        <mxCell id="TD24z0pvAZjdWzv6N8VS-54" value="Data Product Product&lt;div&gt;(Cash Flow)&lt;br&gt;&lt;div&gt;&lt;br&gt;&lt;/div&gt;&lt;div&gt;&lt;br&gt;&lt;/div&gt;&lt;div&gt;&lt;br&gt;&lt;/div&gt;&lt;div&gt;&lt;br&gt;&lt;/div&gt;&lt;div&gt;&lt;br&gt;&lt;/div&gt;&lt;div&gt;&lt;br&gt;&lt;/div&gt;&lt;div&gt;&lt;br&gt;&lt;/div&gt;&lt;div&gt;&lt;br&gt;&lt;/div&gt;&lt;/div&gt;" style="rounded=1;whiteSpace=wrap;html=1;strokeColor=#0070F2;fillColor=#EBF8FF;arcSize=24;absoluteArcSize=1;imageWidth=64;imageHeight=64;strokeWidth=1.5;dashed=1;dashPattern=1 2;" vertex="1" parent="TD24z0pvAZjdWzv6N8VS-53">
          <mxGeometry width="160" height="160" as="geometry" />
        </mxCell>
        <mxCell id="TD24z0pvAZjdWzv6N8VS-55" value="Views" style="rounded=1;whiteSpace=wrap;html=1;strokeColor=#0070F2;strokeWidth=1.5;arcSize=16;fillColor=#ffffff;perimeterSpacing=0;absoluteArcSize=1;" vertex="1" parent="TD24z0pvAZjdWzv6N8VS-53">
          <mxGeometry x="24.5" y="91" width="111" height="20" as="geometry" />
        </mxCell>
        <mxCell id="TD24z0pvAZjdWzv6N8VS-56" value="Analytics Model" style="rounded=1;whiteSpace=wrap;html=1;strokeColor=#0070F2;strokeWidth=1.5;arcSize=16;fillColor=#ffffff;perimeterSpacing=0;absoluteArcSize=1;" vertex="1" parent="TD24z0pvAZjdWzv6N8VS-53">
          <mxGeometry x="24.5" y="56.5" width="111" height="20" as="geometry" />
        </mxCell>
        <mxCell id="TD24z0pvAZjdWzv6N8VS-57" value="Tables" style="rounded=1;whiteSpace=wrap;html=1;strokeColor=#0070F2;strokeWidth=1.5;arcSize=16;fillColor=#ffffff;perimeterSpacing=0;absoluteArcSize=1;" vertex="1" parent="TD24z0pvAZjdWzv6N8VS-53">
          <mxGeometry x="24.5" y="124.5" width="111" height="20" as="geometry" />
        </mxCell>
        <mxCell id="TD24z0pvAZjdWzv6N8VS-58" value="" style="group;strokeColor=none;" vertex="1" connectable="0" parent="TD24z0pvAZjdWzv6N8VS-52">
          <mxGeometry x="177" y="53" width="160" height="160" as="geometry" />
        </mxCell>
        <mxCell id="TD24z0pvAZjdWzv6N8VS-59" value="Data Product Product&lt;div&gt;(House Bank)&lt;br&gt;&lt;div&gt;&lt;br&gt;&lt;/div&gt;&lt;div&gt;&lt;br&gt;&lt;/div&gt;&lt;div&gt;&lt;br&gt;&lt;/div&gt;&lt;div&gt;&lt;br&gt;&lt;/div&gt;&lt;div&gt;&lt;br&gt;&lt;/div&gt;&lt;div&gt;&lt;br&gt;&lt;/div&gt;&lt;div&gt;&lt;br&gt;&lt;/div&gt;&lt;div&gt;&lt;br&gt;&lt;/div&gt;&lt;/div&gt;" style="rounded=1;whiteSpace=wrap;html=1;strokeColor=#0070F2;fillColor=#EBF8FF;arcSize=24;absoluteArcSize=1;imageWidth=64;imageHeight=64;strokeWidth=1.5;dashed=1;dashPattern=1 2;" vertex="1" parent="TD24z0pvAZjdWzv6N8VS-58">
          <mxGeometry width="160" height="160" as="geometry" />
        </mxCell>
        <mxCell id="TD24z0pvAZjdWzv6N8VS-60" value="Views" style="rounded=1;whiteSpace=wrap;html=1;strokeColor=#0070F2;strokeWidth=1.5;arcSize=16;fillColor=#ffffff;perimeterSpacing=0;absoluteArcSize=1;" vertex="1" parent="TD24z0pvAZjdWzv6N8VS-58">
          <mxGeometry x="24.5" y="91" width="111" height="20" as="geometry" />
        </mxCell>
        <mxCell id="TD24z0pvAZjdWzv6N8VS-61" value="Analytics Model" style="rounded=1;whiteSpace=wrap;html=1;strokeColor=#0070F2;strokeWidth=1.5;arcSize=16;fillColor=#ffffff;perimeterSpacing=0;absoluteArcSize=1;" vertex="1" parent="TD24z0pvAZjdWzv6N8VS-58">
          <mxGeometry x="24.5" y="56.5" width="111" height="20" as="geometry" />
        </mxCell>
        <mxCell id="TD24z0pvAZjdWzv6N8VS-62" value="Tables" style="rounded=1;whiteSpace=wrap;html=1;strokeColor=#0070F2;strokeWidth=1.5;arcSize=16;fillColor=#ffffff;perimeterSpacing=0;absoluteArcSize=1;" vertex="1" parent="TD24z0pvAZjdWzv6N8VS-58">
          <mxGeometry x="24.5" y="124.5" width="111" height="20" as="geometry" />
        </mxCell>
        <mxCell id="TD24z0pvAZjdWzv6N8VS-63" value="&lt;p style=&quot;margin-top: 0pt; margin-bottom: 0pt; margin-left: 0in; direction: ltr; unicode-bidi: embed; word-break: normal; font-size: 13px;&quot;&gt;&lt;/p&gt;&lt;div style=&quot;font-size: 13px;&quot;&gt;&lt;font style=&quot;font-size: 13px; line-height: 2.1;&quot; face=&quot;Helvetica&quot;&gt;BDC Catalog (BDC Data Product)&lt;/font&gt;&lt;br style=&quot;font-size: 13px;&quot;&gt;&lt;/div&gt;&lt;p style=&quot;font-size: 13px;&quot;&gt;&lt;/p&gt;" style="rounded=1;whiteSpace=wrap;html=1;strokeColor=#0070F2;strokeWidth=1.5;fillColor=#EBF8FF;align=center;verticalAlign=middle;fontStyle=1;fontSize=13;fontFamily=Arial;fontColor=#000000;labelPosition=center;verticalLabelPosition=middle;spacingTop=8;container=0;arcSize=7;flipV=0;flipH=0;" vertex="1" parent="TD24z0pvAZjdWzv6N8VS-49">
          <mxGeometry x="10.5" width="337" height="36.35" as="geometry" />
        </mxCell>
        <mxCell id="TD24z0pvAZjdWzv6N8VS-64" value="" style="group" vertex="1" connectable="0" parent="1">
          <mxGeometry x="328" y="578" width="358" height="253" as="geometry" />
        </mxCell>
        <mxCell id="TD24z0pvAZjdWzv6N8VS-65" value="" style="rounded=1;whiteSpace=wrap;html=1;strokeColor=#0070F2;fillColor=#ffffff;arcSize=24;absoluteArcSize=1;imageWidth=64;imageHeight=64;strokeWidth=1.5;dashed=1;dashPattern=8 8;" vertex="1" parent="TD24z0pvAZjdWzv6N8VS-64">
          <mxGeometry width="358" height="253" as="geometry" />
        </mxCell>
        <mxCell id="TD24z0pvAZjdWzv6N8VS-66" value="&lt;font color=&quot;#1d2d3e&quot; size=&quot;1&quot; face=&quot;arial&quot;&gt;&lt;b style=&quot;font-size: 14px;&quot;&gt;Customer Space (Custom Data Product)&lt;/b&gt;&lt;/font&gt;" style="text;html=1;align=left;verticalAlign=middle;resizable=0;points=[];autosize=1;strokeColor=none;fillColor=none;fontSize=12;fontColor=default;fontFamily=Helvetica;" vertex="1" parent="TD24z0pvAZjdWzv6N8VS-64">
          <mxGeometry x="12" y="8.769999999999982" width="285" height="29" as="geometry" />
        </mxCell>
        <mxCell id="TD24z0pvAZjdWzv6N8VS-67" value="" style="group" vertex="1" connectable="0" parent="TD24z0pvAZjdWzv6N8VS-64">
          <mxGeometry x="185" y="50" width="160" height="160" as="geometry" />
        </mxCell>
        <mxCell id="TD24z0pvAZjdWzv6N8VS-68" value="Custom Space #2&lt;div&gt;Extension to Data Product&lt;/div&gt;&lt;div&gt;&lt;br&gt;&lt;/div&gt;&lt;div&gt;&lt;br&gt;&lt;/div&gt;&lt;div&gt;&lt;br&gt;&lt;/div&gt;&lt;div&gt;&lt;br&gt;&lt;/div&gt;&lt;div&gt;&lt;br&gt;&lt;/div&gt;&lt;div&gt;&lt;br&gt;&lt;/div&gt;&lt;div&gt;&lt;br&gt;&lt;/div&gt;" style="rounded=1;whiteSpace=wrap;html=1;strokeColor=#0070F2;fillColor=#EBF8FF;arcSize=24;absoluteArcSize=1;imageWidth=64;imageHeight=64;strokeWidth=1.5;dashed=1;dashPattern=8 8;" vertex="1" parent="TD24z0pvAZjdWzv6N8VS-67">
          <mxGeometry width="160" height="160" as="geometry" />
        </mxCell>
        <mxCell id="TD24z0pvAZjdWzv6N8VS-69" value="Z_Views" style="rounded=1;whiteSpace=wrap;html=1;strokeColor=#0070F2;strokeWidth=1.5;arcSize=16;fillColor=#ffffff;perimeterSpacing=0;absoluteArcSize=1;" vertex="1" parent="TD24z0pvAZjdWzv6N8VS-67">
          <mxGeometry x="24.5" y="63.5" width="111" height="20" as="geometry" />
        </mxCell>
        <mxCell id="TD24z0pvAZjdWzv6N8VS-70" value="Z_Table" style="rounded=1;whiteSpace=wrap;html=1;strokeColor=#0070F2;strokeWidth=1.5;arcSize=16;fillColor=#ffffff;perimeterSpacing=0;absoluteArcSize=1;" vertex="1" parent="TD24z0pvAZjdWzv6N8VS-67">
          <mxGeometry x="24.5" y="94.5" width="111" height="20" as="geometry" />
        </mxCell>
        <mxCell id="TD24z0pvAZjdWzv6N8VS-71" value="Z_Flow" style="rounded=1;whiteSpace=wrap;html=1;strokeColor=#0070F2;strokeWidth=1.5;arcSize=16;fillColor=#ffffff;perimeterSpacing=0;absoluteArcSize=1;" vertex="1" parent="TD24z0pvAZjdWzv6N8VS-67">
          <mxGeometry x="24.5" y="125" width="111" height="20" as="geometry" />
        </mxCell>
        <mxCell id="TD24z0pvAZjdWzv6N8VS-72" value="" style="group" vertex="1" connectable="0" parent="TD24z0pvAZjdWzv6N8VS-64">
          <mxGeometry x="12" y="50" width="160" height="160" as="geometry" />
        </mxCell>
        <mxCell id="TD24z0pvAZjdWzv6N8VS-73" value="Custom Space #1&lt;div&gt;Extension to Data Product&lt;/div&gt;&lt;div&gt;&lt;br&gt;&lt;/div&gt;&lt;div&gt;&lt;br&gt;&lt;/div&gt;&lt;div&gt;&lt;br&gt;&lt;/div&gt;&lt;div&gt;&lt;br&gt;&lt;/div&gt;&lt;div&gt;&lt;br&gt;&lt;/div&gt;&lt;div&gt;&lt;br&gt;&lt;/div&gt;&lt;div&gt;&lt;br&gt;&lt;/div&gt;" style="rounded=1;whiteSpace=wrap;html=1;strokeColor=#0070F2;fillColor=#EBF8FF;arcSize=24;absoluteArcSize=1;imageWidth=64;imageHeight=64;strokeWidth=1.5;dashed=1;dashPattern=8 8;" vertex="1" parent="TD24z0pvAZjdWzv6N8VS-72">
          <mxGeometry width="160" height="160" as="geometry" />
        </mxCell>
        <mxCell id="TD24z0pvAZjdWzv6N8VS-74" value="Z_Views" style="rounded=1;whiteSpace=wrap;html=1;strokeColor=#0070F2;strokeWidth=1.5;arcSize=16;fillColor=#ffffff;perimeterSpacing=0;absoluteArcSize=1;" vertex="1" parent="TD24z0pvAZjdWzv6N8VS-72">
          <mxGeometry x="24.5" y="63.5" width="111" height="20" as="geometry" />
        </mxCell>
        <mxCell id="TD24z0pvAZjdWzv6N8VS-75" value="Z_Table" style="rounded=1;whiteSpace=wrap;html=1;strokeColor=#0070F2;strokeWidth=1.5;arcSize=16;fillColor=#ffffff;perimeterSpacing=0;absoluteArcSize=1;" vertex="1" parent="TD24z0pvAZjdWzv6N8VS-72">
          <mxGeometry x="24.5" y="94.5" width="111" height="20" as="geometry" />
        </mxCell>
        <mxCell id="TD24z0pvAZjdWzv6N8VS-76" value="Z_Flow" style="rounded=1;whiteSpace=wrap;html=1;strokeColor=#0070F2;strokeWidth=1.5;arcSize=16;fillColor=#ffffff;perimeterSpacing=0;absoluteArcSize=1;" vertex="1" parent="TD24z0pvAZjdWzv6N8VS-72">
          <mxGeometry x="24.5" y="125" width="111" height="20" as="geometry" />
        </mxCell>
      </root>
    </mxGraphModel>
  </diagram>
</mxfile>
